<?xml version="1.0" standalone="no"?>
<!DOCTYPE svg PUBLIC "-//W3C//DTD SVG 20010904//EN"
 "http://www.w3.org/TR/2001/REC-SVG-20010904/DTD/svg10.dtd">
<svg version="1.0" xmlns="http://www.w3.org/2000/svg"
 width="1300.000000pt" height="1265.000000pt" viewBox="0 0 1300.000000 1265.000000"
 preserveAspectRatio="xMidYMid meet">

<g transform="translate(0.000000,1265.000000) scale(0.100000,-0.100000)"
fill="#000000" stroke="none">
<path d="M5612 11564 c-71 -19 -106 -38 -160 -87 -92 -86 -127 -174 -119 -306
5 -93 36 -187 66 -194 9 -3 4 -4 -11 -4 -15 1 -24 5 -22 9 3 4 -2 5 -10 2 -17
-7 -22 -44 -6 -44 6 0 10 -12 9 -27 l-1 -28 -8 25 c-7 23 -8 23 -9 4 -1 -27
28 -64 54 -68 11 -2 23 -14 27 -27 5 -16 6 -11 2 14 -3 20 -1 37 4 37 5 0 9
-25 7 -55 -2 -40 3 -66 17 -92 19 -34 19 -43 8 -155 l-12 -120 29 -36 c17 -20
52 -48 79 -62 42 -22 62 -25 144 -25 115 0 174 24 222 89 l29 41 -6 105 c-6
98 -5 109 19 167 14 35 26 74 26 88 0 18 5 25 20 25 25 0 47 34 56 86 5 36 3
44 -16 57 l-22 15 20 54 c85 229 -42 467 -276 517 -67 14 -94 13 -160 -5z m31
-321 c-24 -2 -62 -2 -85 0 -24 2 -5 4 42 4 47 0 66 -2 43 -4z m-165 -19 c-43
-18 -49 -33 -58 -149 l-6 -90 -2 88 c-1 49 3 98 9 110 16 30 50 57 74 56 13 0
7 -5 -17 -15z m-80 -354 c8 0 13 -3 9 -6 -10 -10 -48 7 -40 19 5 8 8 8 11 -1
2 -7 11 -12 20 -12z m92 -194 c0 -39 -6 -30 -13 19 -4 27 -3 35 3 25 5 -8 10
-28 10 -44z m20 44 c0 -5 -2 -10 -4 -10 -3 0 -8 5 -11 10 -3 6 -1 10 4 10 6 0
11 -4 11 -10z m4 -55 c-2 -25 1 -35 11 -35 16 0 20 -12 8 -23 -3 -4 -11 1 -18
11 -13 20 -19 82 -7 82 5 0 7 -16 6 -35z m86 -25 c0 -13 -20 -13 -40 0 -12 8
-9 10 13 10 15 0 27 -4 27 -10z m-23 -64 c-3 -7 0 -19 6 -25 6 -6 8 -14 4 -18
-8 -8 -36 26 -37 45 0 6 7 12 16 12 10 0 14 -6 11 -14z m60 -18 c-16 -6 -33
-6 -37 -2 -5 5 7 10 28 10 37 2 37 2 9 -8z m36 -15 c-7 -2 -19 -2 -25 0 -7 3
-2 5 12 5 14 0 19 -2 13 -5z m-3 -23 c16 0 21 -3 14 -10 -7 -7 -23 -5 -50 5
-21 9 -28 13 -14 10 14 -2 36 -5 50 -5z"/>
<path d="M1537 11556 c-117 -43 -186 -146 -187 -278 l0 -57 310 -3 310 -3 0
75 c-1 114 -44 192 -139 248 -41 24 -57 27 -151 30 -71 1 -117 -2 -143 -12z"/>
<path d="M3702 11349 c-61 -10 -152 -54 -152 -72 0 -7 -10 -17 -22 -22 -79
-35 -141 -298 -107 -455 8 -38 26 -70 70 -126 33 -40 61 -74 63 -74 3 0 0 15
-5 33 -5 17 -14 80 -19 139 -6 58 -13 114 -17 125 -5 12 6 7 32 -16 58 -50 99
-64 191 -65 70 0 87 4 127 27 50 29 84 70 102 124 15 44 25 44 50 2 36 -62 32
-210 -11 -379 -5 -22 -1 -20 30 15 20 22 53 67 73 100 36 57 38 65 42 155 3
105 -12 220 -39 293 -58 151 -221 230 -408 196z"/>
<path d="M7798 11332 l-28 -3 0 -265 0 -264 -22 0 c-18 0 -20 -2 -8 -9 8 -6
18 -7 22 -5 4 3 8 -6 8 -20 0 -25 3 -26 55 -26 154 0 214 -105 181 -315 -3
-16 17 16 44 73 28 58 47 110 44 120 -4 13 -3 14 4 4 14 -21 52 78 69 182 17
106 11 197 -19 294 -43 139 -212 253 -350 234z"/>
<path d="M7718 11313 c7 -3 16 -2 19 1 4 3 -2 6 -13 5 -11 0 -14 -3 -6 -6z"/>
<path d="M7606 11265 c-15 -14 -32 -23 -37 -20 -22 14 -6 -4 17 -20 15 -9 23
-12 20 -6 -4 6 -1 11 7 11 18 0 67 39 50 40 -7 0 -13 -4 -13 -9 0 -12 -39 -21
-45 -11 -3 5 4 11 15 15 11 3 20 11 20 16 0 14 -4 11 -34 -16z"/>
<path d="M7544 11232 c3 -5 0 -13 -6 -15 -9 -4 -10 -6 -1 -6 17 -1 25 16 12
25 -7 4 -9 3 -5 -4z"/>
<path d="M11740 11156 c-58 -55 -212 -172 -262 -197 -21 -11 -38 -24 -38 -30
0 -6 7 -6 20 1 12 6 30 8 40 5 17 -6 18 -8 6 -21 -19 -19 -32 -18 -16 1 17 21
-8 21 -37 0 -17 -12 -22 -12 -26 -3 -2 7 -2 0 1 -17 4 -31 28 -65 45 -65 5 0
4 7 -3 15 -8 9 -8 15 -2 15 16 0 29 -55 36 -142 4 -48 12 -88 24 -107 16 -26
17 -41 10 -98 -10 -83 -7 -93 42 -137 48 -43 121 -66 210 -66 92 0 150 22 199
76 40 43 41 45 41 117 0 62 4 78 25 107 22 30 25 43 25 126 0 89 1 92 24 98
15 4 28 17 35 37 13 37 14 70 4 67 -25 -7 -204 124 -308 223 -23 22 -43 39
-45 39 -3 0 -25 -20 -50 -44z m58 -230 l-2 -211 -6 210 c-4 157 -8 209 -17
208 -7 -2 -10 4 -6 12 4 12 9 13 19 4 11 -9 14 -53 12 -223z m-68 164 c0 -5
-5 -10 -11 -10 -5 0 -7 5 -4 10 3 6 8 10 11 10 2 0 4 -4 4 -10z m30 -14 c0 -8
-7 -16 -15 -20 -13 -4 -14 -2 -5 14 13 23 20 26 20 6z m-86 -31 c-7 -16 -24
-21 -24 -6 0 8 7 13 27 20 1 1 0 -6 -3 -14z m-41 -44 c-3 -13 1 -21 14 -24 12
-3 13 -5 3 -6 -24 -1 -43 16 -37 33 9 23 26 20 20 -3z m44 -13 c-3 -8 -6 -5
-6 6 -1 11 2 17 5 13 3 -3 4 -12 1 -19z m-88 -9 c-22 -14 -33 -10 -19 6 7 8
17 12 22 9 6 -4 5 -10 -3 -15z m-130 -105 c-15 -18 -22 -13 -13 10 3 9 10 13
16 10 5 -3 4 -12 -3 -20z m61 0 c0 -2 -9 -4 -20 -4 -11 0 -20 4 -20 9 0 5 9 7
20 4 11 -3 20 -7 20 -9z m-4 -39 c1 -8 -2 -15 -7 -15 -5 0 -9 10 -9 22 0 23
12 17 16 -7z m36 -52 c-3 -16 -7 -22 -10 -15 -4 13 4 42 11 42 2 0 2 -12 -1
-27z m35 -5 c0 -18 2 -53 5 -78 3 -25 4 -39 1 -32 -3 6 -11 12 -19 12 -15 0
-29 41 -21 62 3 7 6 1 6 -14 1 -16 6 -28 12 -28 8 0 9 13 5 39 -5 33 -1 71 8
71 2 0 3 -15 3 -32z m180 -110 c-3 -8 -6 -5 -6 6 -1 11 2 17 5 13 3 -3 4 -12
1 -19z m30 0 c-3 -8 -6 -5 -6 6 -1 11 2 17 5 13 3 -3 4 -12 1 -19z m-152 -32
c-11 -8 -24 -12 -29 -8 -5 3 -1 9 10 13 31 12 39 10 19 -5z m43 -19 c-6 -12
-12 -23 -13 -24 -1 -2 -2 10 -2 26 0 20 4 28 13 24 11 -4 11 -10 2 -26z m-18
3 c0 -5 -4 -10 -10 -10 -5 0 -10 5 -10 10 0 6 5 10 10 10 6 0 10 -4 10 -10z
m-20 -20 c8 -5 12 -11 10 -14 -3 -2 -14 2 -24 10 -22 15 -10 19 14 4z"/>
<path d="M7476 11154 c-10 -14 -16 -32 -14 -39 2 -8 11 3 20 25 19 46 17 51
-6 14z"/>
<path d="M7491 11136 c-7 -8 -8 -17 -3 -20 6 -3 13 1 16 10 9 23 2 28 -13 10z"/>
<path d="M1815 11134 c-16 -3 -59 -12 -95 -20 -60 -15 -69 -15 -119 0 -70 20
-236 22 -244 3 -3 -8 -1 -20 4 -28 5 -8 9 -32 9 -55 0 -26 6 -47 18 -57 44
-39 172 -45 205 -9 8 9 23 36 32 60 23 57 51 55 74 -5 26 -68 42 -78 119 -78
43 1 78 7 98 17 27 15 32 24 43 88 7 39 11 73 10 75 -7 6 -124 13 -154 9z"/>
<path d="M7511 11104 c0 -11 3 -14 6 -6 3 7 2 16 -1 19 -3 4 -6 -2 -5 -13z"/>
<path d="M7460 11055 c-7 -9 -8 -15 -2 -15 5 0 12 7 16 15 3 8 4 15 2 15 -2 0
-9 -7 -16 -15z"/>
<path d="M7495 11050 c-3 -5 -1 -10 4 -10 6 0 11 5 11 10 0 6 -2 10 -4 10 -3
0 -8 -4 -11 -10z"/>
<path d="M7433 11005 c0 -22 2 -30 4 -17 2 12 2 30 0 40 -3 9 -5 -1 -4 -23z"/>
<path d="M7511 11014 c0 -11 3 -14 6 -6 3 7 2 16 -1 19 -3 4 -6 -2 -5 -13z"/>
<path d="M7451 10984 c0 -11 3 -14 6 -6 3 7 2 16 -1 19 -3 4 -6 -2 -5 -13z"/>
<path d="M1955 10934 c-14 -76 -88 -184 -126 -184 -6 0 -27 14 -49 31 -72 58
-141 57 -219 -6 -24 -19 -52 -35 -62 -35 -37 0 -101 85 -134 179 -12 35 -13
34 -20 -52 -5 -56 -3 -109 4 -144 15 -76 16 -74 -26 -69 -21 2 -29 1 -18 -1
11 -3 27 -11 36 -19 9 -8 18 -12 21 -9 3 3 8 -1 12 -10 4 -10 2 -14 -5 -9 -8
4 -9 -1 -4 -15 5 -18 2 -21 -23 -21 -17 0 -32 6 -36 15 -8 23 -29 18 -23 -5 3
-13 0 -20 -8 -20 -41 0 -56 -57 -30 -116 8 -19 22 -49 30 -68 8 -19 15 -43 15
-55 0 -11 4 -30 9 -43 30 -75 73 -231 68 -248 -3 -11 -2 -18 3 -15 4 2 13 -17
20 -43 6 -26 16 -55 21 -64 5 -10 9 -27 9 -38 0 -11 5 -20 10 -20 6 0 10 -11
10 -24 0 -13 7 -43 15 -66 8 -24 18 -56 20 -72 l5 -28 -267 0 c-177 0 -263 4
-253 10 8 5 11 10 5 10 -11 0 -12 6 -17 152 -2 61 -6 100 -11 90 -4 -10 -5 0
-2 23 2 22 5 51 5 65 0 20 2 22 10 10 8 -12 10 -11 10 6 0 32 -12 37 -27 12
-13 -22 -14 -22 -8 8 5 24 2 33 -10 38 -13 5 -15 1 -10 -17 5 -19 4 -20 -5 -4
-6 9 -9 21 -6 26 3 5 -6 21 -20 36 -18 20 -24 34 -20 51 7 27 -13 76 -28 71
-6 -2 -10 -15 -8 -27 1 -13 -7 -51 -17 -84 -34 -102 -44 -190 -38 -325 2 -69
8 -134 12 -143 7 -17 59 -18 895 -18 l888 0 7 97 c11 135 0 293 -25 388 -12
44 -22 112 -24 150 -4 117 -60 189 -175 226 -102 33 -192 73 -201 89 -6 10
-10 30 -10 44 0 23 -4 26 -32 25 -18 0 -55 -4 -83 -9 -27 -4 -51 -7 -52 -6 -1
1 5 22 14 46 12 35 14 67 9 150 -7 112 -19 145 -31 84z m-524 -389 c63 -87
171 -134 285 -122 78 8 131 42 192 122 l23 30 -5 -33 c-23 -136 -263 -206
-425 -125 -30 16 -67 44 -82 63 -26 34 -46 110 -29 110 5 0 23 -20 41 -45z
m-596 -315 c3 -5 1 -10 -4 -10 -6 0 -11 5 -11 10 0 6 2 10 4 10 3 0 8 -4 11
-10z m15 -41 c0 -5 -4 -9 -10 -9 -5 0 -10 7 -10 16 0 8 5 12 10 9 6 -3 10 -10
10 -16z m1191 -5 c9 -11 16 -55 19 -121 l5 -104 -35 2 c-19 1 -43 -2 -52 -6
-26 -11 -47 1 -59 31 -15 40 -2 81 34 106 38 26 48 39 40 52 -3 5 -11 2 -18
-7 -6 -9 -24 -19 -40 -23 -27 -7 -28 -6 -21 26 3 18 11 39 17 47 16 19 93 17
110 -3z m-1114 -196 c-3 -8 -6 -5 -6 6 -1 11 2 17 5 13 3 -3 4 -12 1 -19z"/>
<path d="M1981 10046 c-11 -13 -11 -20 -3 -28 15 -15 24 -5 20 23 -3 21 -4 21
-17 5z"/>
<path d="M7432 10920 c0 -19 2 -27 5 -17 2 9 2 25 0 35 -3 9 -5 1 -5 -18z"/>
<path d="M7540 10945 c0 -5 5 -17 10 -25 5 -8 10 -10 10 -5 0 6 -5 17 -10 25
-5 8 -10 11 -10 5z"/>
<path d="M7586 10935 c-9 -26 -7 -32 5 -12 6 10 9 21 6 23 -2 3 -7 -2 -11 -11z"/>
<path d="M9452 10913 c-21 -4 -22 -8 -16 -51 4 -26 7 -53 7 -60 0 -28 58 -55
118 -55 67 0 84 11 110 70 11 26 25 43 35 43 11 0 14 -5 10 -17 -4 -10 -4 -14
0 -10 7 7 49 -71 45 -86 -1 -5 3 -6 9 -2 5 3 17 2 26 -3 17 -10 91 1 136 19
23 9 28 20 38 76 6 36 8 68 5 72 -15 14 -222 4 -231 -11 -8 -12 -58 -9 -121 7
-55 14 -121 17 -171 8z m177 -24 c27 -9 31 -16 31 -45 0 -73 -79 -106 -165
-70 -33 14 -35 18 -35 64 0 27 3 52 7 55 10 11 127 8 162 -4z m310 -3 c17 -20
10 -92 -7 -88 -8 1 -11 -2 -7 -8 9 -14 -38 -30 -86 -30 -56 0 -91 36 -87 87 4
44 19 50 114 52 42 1 65 -4 73 -13z"/>
<path d="M7456 10880 c8 -43 14 -51 14 -19 0 13 -5 31 -10 39 -7 11 -8 5 -4
-20z"/>
<path d="M7586 10892 c-2 -4 2 -16 10 -27 8 -10 14 -14 14 -8 0 7 -5 15 -10
18 -6 4 -8 11 -5 16 4 5 4 9 1 9 -3 0 -7 -3 -10 -8z"/>
<path d="M7441 10854 c0 -11 3 -14 6 -6 3 7 2 16 -1 19 -3 4 -6 -2 -5 -13z"/>
<path d="M7650 10850 c0 -5 5 -10 10 -10 6 0 10 5 10 10 0 6 -4 10 -10 10 -5
0 -10 -4 -10 -10z"/>
<path d="M7620 10840 c0 -5 5 -10 11 -10 5 0 7 5 4 10 -3 6 -8 10 -11 10 -2 0
-4 -4 -4 -10z"/>
<path d="M7640 10816 c0 -2 7 -7 16 -10 8 -3 12 -2 9 4 -6 10 -25 14 -25 6z"/>
<path d="M7705 10780 c3 -5 8 -10 11 -10 2 0 4 5 4 10 0 6 -5 10 -11 10 -5 0
-7 -4 -4 -10z"/>
<path d="M9730 10775 c0 -5 5 -17 10 -25 5 -8 10 -10 10 -5 0 6 -5 17 -10 25
-5 8 -10 11 -10 5z"/>
<path d="M1191 10648 c1 -17 3 -18 6 -6 3 13 11 16 32 12 16 -4 32 -1 35 5 5
7 -6 11 -33 11 -36 0 -41 -3 -40 -22z"/>
<path d="M1180 10583 c0 -4 5 -15 10 -23 8 -13 10 -13 10 2 0 9 -4 20 -10 23
-5 3 -10 3 -10 -2z"/>
<path d="M1148 10567 c-7 -8 -20 -14 -28 -15 -29 -2 -125 -41 -105 -42 19 -1
19 -2 2 -9 -11 -4 5 -7 40 -8 56 0 57 0 19 9 -22 4 -42 11 -45 14 -3 4 9 3 27
-1 23 -5 40 -2 57 9 35 23 50 20 79 -16 21 -27 24 -29 19 -10 -3 12 -17 31
-30 42 -14 10 -22 24 -18 30 9 14 -1 13 -17 -3z m-38 -37 c-8 -5 -22 -9 -30
-9 -10 0 -8 3 5 9 27 12 43 12 25 0z"/>
<path d="M1218 10563 c7 -3 16 -2 19 1 4 3 -2 6 -13 5 -11 0 -14 -3 -6 -6z"/>
<path d="M1135 10510 c-3 -5 1 -10 9 -10 9 0 16 5 16 10 0 6 -4 10 -9 10 -6 0
-13 -4 -16 -10z"/>
<path d="M960 10500 c-8 -5 -10 -10 -5 -10 6 0 17 5 25 10 8 5 11 10 5 10 -5
0 -17 -5 -25 -10z"/>
<path d="M887 10459 c-20 -17 -37 -37 -37 -45 0 -8 -4 -13 -9 -10 -5 4 -7 -3
-4 -14 6 -23 19 -26 26 -7 2 6 3 -1 1 -16 -2 -18 0 -26 7 -22 6 4 9 21 7 38
-3 30 -1 32 28 29 40 -4 58 17 44 52 -12 33 -17 33 -63 -5z m33 -4 c-23 -24
-16 -37 8 -13 6 6 15 8 19 4 11 -11 -19 -27 -41 -22 -11 3 -26 0 -33 -6 -7 -6
-13 -7 -13 -2 0 11 62 64 74 64 5 0 -1 -11 -14 -25z"/>
<path d="M5315 10459 c-155 -44 -300 -142 -348 -235 -16 -31 -16 -31 8 -26 14
2 36 -3 50 -12 24 -16 25 -20 25 -121 0 -97 -1 -105 -19 -105 -11 0 -21 6 -24
13 -4 10 -7 10 -18 0 -46 -44 -95 44 -51 94 9 11 27 25 40 32 25 13 30 51 7
51 -8 0 -15 -7 -15 -16 0 -11 -8 -15 -27 -12 -25 3 -29 -2 -47 -57 -16 -50
-20 -89 -20 -225 -1 -91 2 -173 6 -182 7 -17 56 -18 822 -18 l814 0 6 35 c13
69 8 299 -9 380 -20 100 -72 210 -126 264 -50 49 -153 102 -268 136 -112 33
-117 33 -124 -11 -9 -55 -52 -109 -105 -135 -75 -35 -195 -46 -289 -26 -118
26 -179 78 -198 170 -6 32 -1 31 -90 6z"/>
<path d="M9916 10423 c-6 -14 -5 -15 5 -6 7 7 10 15 7 18 -3 3 -9 -2 -12 -12z"/>
<path d="M9972 10384 c-26 -96 -116 -144 -273 -144 -148 0 -252 55 -265 140
-8 47 -14 49 -110 19 -199 -61 -319 -180 -370 -369 -18 -68 -27 -326 -12 -362
7 -17 53 -18 762 -18 l755 0 7 46 c3 25 4 109 1 187 -8 253 -73 384 -229 463
-52 27 -170 67 -224 77 -29 5 -31 4 -42 -39z"/>
<path d="M1221 10394 c0 -11 3 -14 6 -6 3 7 2 16 -1 19 -3 4 -6 -2 -5 -13z"/>
<path d="M9888 10382 c-30 -42 -91 -72 -145 -72 -41 0 -53 -4 -53 -15 0 -12 9
-14 43 -9 73 10 104 24 146 63 23 21 41 41 41 45 0 13 -19 5 -32 -12z"/>
<path d="M817 10369 c-4 -13 -2 -28 4 -34 7 -7 8 -4 4 10 -7 20 -6 20 9 1 19
-24 20 -10 2 23 l-13 23 -6 -23z"/>
<path d="M800 10288 c0 -26 2 -29 15 -18 8 7 15 18 15 25 0 7 -7 15 -15 19
-11 4 -15 -2 -15 -26z"/>
<path d="M871 10224 c0 -11 3 -14 6 -6 3 7 2 16 -1 19 -3 4 -6 -2 -5 -13z"/>
<path d="M4092 10220 c0 -14 2 -19 5 -12 2 6 2 18 0 25 -3 6 -5 1 -5 -13z"/>
<path d="M1290 10196 c0 -13 5 -26 12 -28 7 -3 9 -12 4 -23 -6 -16 -9 -17 -16
-5 -8 13 -10 13 -10 -1 0 -9 6 -22 14 -28 19 -16 29 16 20 64 -8 42 -24 57
-24 21z"/>
<path d="M4148 10213 c7 -3 16 -2 19 1 4 3 -2 6 -13 5 -11 0 -14 -3 -6 -6z"/>
<path d="M4330 10217 c0 -3 12 -12 26 -22 15 -9 23 -12 20 -6 -7 11 -46 35
-46 28z"/>
<path d="M3937 10159 c4 -13 8 -18 11 -10 2 7 -1 18 -6 23 -8 8 -9 4 -5 -13z"/>
<path d="M860 10161 c0 -5 5 -13 10 -16 6 -3 10 -2 10 4 0 5 -4 13 -10 16 -5
3 -10 2 -10 -4z"/>
<path d="M4092 10150 c0 -14 2 -19 5 -12 2 6 2 18 0 25 -3 6 -5 1 -5 -13z"/>
<path d="M3916 10151 c-4 -7 -5 -15 -2 -18 9 -9 19 4 14 18 -4 11 -6 11 -12 0z"/>
<path d="M3872 10099 c-19 -30 -11 -32 11 -3 10 13 14 24 10 24 -5 0 -14 -9
-21 -21z"/>
<path d="M3926 10093 c-6 -14 -5 -15 5 -6 7 7 10 15 7 18 -3 3 -9 -2 -12 -12z"/>
<path d="M3955 10090 c-3 -5 -1 -10 4 -10 6 0 11 5 11 10 0 6 -2 10 -4 10 -3
0 -8 -4 -11 -10z"/>
<path d="M4101 10074 c0 -11 3 -14 6 -6 3 7 2 16 -1 19 -3 4 -6 -2 -5 -13z"/>
<path d="M4371 10074 c0 -11 3 -14 6 -6 3 7 2 16 -1 19 -3 4 -6 -2 -5 -13z"/>
<path d="M4983 10065 c-18 -20 -16 -55 2 -55 10 0 15 11 15 35 0 39 0 40 -17
20z"/>
<path d="M7378 10026 c-134 -48 -234 -165 -246 -286 l-4 -48 151 3 c84 1 155
5 158 9 3 3 -15 6 -40 6 -50 0 -55 6 -60 75 -2 26 3 32 41 49 23 11 42 23 42
26 0 4 -15 11 -32 17 -39 11 -40 28 -6 99 30 63 48 68 43 13 -3 -23 -2 -39 1
-36 3 3 8 24 10 46 4 46 0 48 -58 27z"/>
<path d="M8191 9926 c-7 -61 -14 -136 -18 -167 l-5 -57 113 -7 c63 -4 134 -5
159 -3 l45 3 -1 53 c-4 123 -117 252 -250 282 l-32 7 -11 -111z"/>
<path d="M4027 10019 c7 -7 15 -10 18 -7 3 3 -2 9 -12 12 -14 6 -15 5 -6 -5z"/>
<path d="M4096 9994 c-11 -8 -16 -14 -10 -14 13 0 39 18 34 24 -3 2 -14 -2
-24 -10z"/>
<path d="M7400 10000 c0 -5 5 -10 10 -10 6 0 10 5 10 10 0 6 -4 10 -10 10 -5
0 -10 -4 -10 -10z"/>
<path d="M952 9970 c0 -14 2 -19 5 -12 2 6 2 18 0 25 -3 6 -5 1 -5 -13z"/>
<path d="M1362 9970 c0 -14 2 -19 5 -12 2 6 2 18 0 25 -3 6 -5 1 -5 -13z"/>
<path d="M7440 9935 c0 -8 -8 -15 -17 -16 -14 0 -15 -2 -3 -6 8 -3 18 -11 22
-17 4 -6 8 4 8 22 0 17 -2 32 -5 32 -3 0 -5 -7 -5 -15z"/>
<path d="M1384 9890 c3 -14 6 -28 6 -32 0 -5 5 -8 11 -8 12 0 2 39 -13 55 -7
7 -9 2 -4 -15z"/>
<path d="M951 9864 c0 -11 3 -14 6 -6 3 7 2 16 -1 19 -3 4 -6 -2 -5 -13z"/>
<path d="M3832 9830 c0 -14 2 -19 5 -12 2 6 2 18 0 25 -3 6 -5 1 -5 -13z"/>
<path d="M7452 9830 c0 -14 2 -19 5 -12 2 6 2 18 0 25 -3 6 -5 1 -5 -13z"/>
<path d="M7420 9829 c0 -5 5 -7 10 -4 6 3 10 8 10 11 0 2 -4 4 -10 4 -5 0 -10
-5 -10 -11z"/>
<path d="M7351 9811 c-9 -6 -10 -11 -2 -15 6 -4 9 -11 6 -16 -3 -4 5 -5 17 -2
19 5 20 7 6 10 -25 5 -22 20 5 25 19 4 19 4 2 5 -11 1 -26 -2 -34 -7z"/>
<path d="M7437 9769 c7 -7 15 -10 18 -7 3 3 -2 9 -12 12 -14 6 -15 5 -6 -5z"/>
<path d="M4371 9754 c0 -11 3 -14 6 -6 3 7 2 16 -1 19 -3 4 -6 -2 -5 -13z"/>
<path d="M7450 9740 c0 -5 5 -10 11 -10 5 0 7 5 4 10 -3 6 -8 10 -11 10 -2 0
-4 -4 -4 -10z"/>
<path d="M1444 9711 c1 -17 4 -31 9 -31 10 0 9 32 -2 48 -5 9 -8 3 -7 -17z"/>
<path d="M7403 9733 c9 -2 23 -2 30 0 6 3 -1 5 -18 5 -16 0 -22 -2 -12 -5z"/>
<path d="M4214 9689 c1 -37 3 -39 31 -38 17 1 22 3 13 6 -9 2 -20 17 -23 33
-10 45 -21 44 -21 -1z"/>
<path d="M7455 9710 c3 -5 8 -10 11 -10 2 0 4 5 4 10 0 6 -5 10 -11 10 -5 0
-7 -4 -4 -10z"/>
<path d="M9633 8726 c-57 -14 -83 -31 -83 -52 0 -8 -9 -14 -21 -14 -33 0 -52
-61 -47 -147 3 -40 2 -73 -2 -73 -4 0 -13 -14 -20 -31 -13 -30 -8 -233 6 -286
5 -17 1 -22 -18 -25 -35 -5 -31 -42 5 -46 17 -2 27 -9 27 -20 0 -9 17 -28 37
-42 70 -48 167 -27 201 43 17 35 59 37 71 5 17 -44 57 -71 114 -76 46 -4 57
-1 85 23 l32 27 0 -34 c0 -18 -9 -72 -20 -121 -25 -112 -73 -187 -121 -187 -5
0 -9 18 -9 39 0 22 -7 46 -15 55 -23 22 -76 29 -123 16 -46 -12 -62 -33 -62
-79 0 -17 -5 -31 -12 -31 -16 0 -103 92 -123 130 -9 18 -23 64 -31 103 -9 39
-17 74 -20 76 -2 2 -4 -40 -4 -94 0 -97 0 -98 40 -157 22 -33 40 -61 40 -63 0
-1 -38 -10 -84 -19 -121 -26 -157 -49 -173 -111 -7 -27 -13 -61 -13 -75 -1
-19 -12 -32 -45 -52 -24 -14 -58 -46 -75 -69 -55 -76 -61 -119 -58 -391 3
-275 4 -279 84 -318 39 -19 59 -20 564 -20 508 0 525 1 566 21 32 15 48 32 64
64 21 42 21 56 18 288 l-3 243 -33 67 c-24 49 -46 76 -80 101 -74 54 -77 59
-91 119 -11 51 -17 60 -54 81 -23 14 -71 33 -107 42 -36 10 -67 19 -69 21 -2
1 13 34 33 73 l37 70 -7 119 -7 118 31 5 c18 2 37 0 43 -6 7 -6 3 5 -7 24 -11
19 -25 35 -32 35 -17 0 -17 -4 -2 136 10 98 10 134 1 162 -7 20 -9 51 -6 71
17 86 -56 190 -169 242 -66 30 -179 39 -253 20z m337 -366 c25 -14 38 -63 46
-182 l7 -98 -267 0 -266 0 0 44 c0 87 21 200 40 220 18 19 25 19 147 6 111
-11 138 -10 198 3 39 8 71 15 73 16 2 1 12 -4 22 -9z m-130 -629 c29 -55 0
-91 -74 -91 -60 0 -76 12 -76 55 0 44 16 55 82 55 46 0 59 -4 68 -19z m-180
-210 c21 -35 30 -40 71 -46 26 -4 67 -4 91 0 38 6 48 12 66 43 l22 37 0 -42 0
-43 88 -1 c48 -1 90 -1 95 0 12 2 8 -24 -8 -45 -8 -10 -15 -26 -15 -35 0 -9
-56 -162 -125 -339 -69 -177 -125 -325 -125 -327 0 -2 -14 -3 -32 -1 -32 3
-32 3 -195 372 -90 203 -163 371 -163 373 0 2 42 3 94 3 102 0 107 2 100 58
-5 43 6 40 36 -7z"/>
<path d="M1542 8710 c-12 -12 -22 -28 -22 -36 0 -12 -5 -14 -17 -8 -10 4 -35
9 -56 12 -36 4 -38 3 -54 -36 -14 -38 -17 -40 -48 -35 -48 8 -79 -26 -71 -77
6 -35 4 -38 -24 -43 -41 -9 -50 -48 -20 -89 20 -28 21 -32 6 -40 -23 -13 -20
-45 5 -58 12 -7 18 -17 15 -26 -3 -8 -9 -20 -12 -28 -3 -8 10 -28 31 -47 44
-42 62 -112 26 -102 -40 10 -50 -78 -15 -134 16 -25 59 -31 67 -10 3 6 3 -3 0
-21 -4 -25 -1 -36 12 -46 11 -8 16 -20 12 -30 -4 -9 -1 -27 5 -41 9 -19 14
-22 25 -14 7 6 13 19 13 27 0 13 -3 12 -15 -4 -14 -19 -14 -19 -15 2 0 15 6
20 24 20 24 0 25 -15 4 -42 -5 -7 -8 -16 -7 -20 1 -5 0 -20 -4 -34 -3 -14 -8
-64 -11 -112 l-6 -88 70 -47 71 -46 15 21 c8 12 21 22 28 22 44 0 88 80 52 93
-17 7 -26 -1 -26 -24 0 -12 -10 -18 -40 -21 -45 -4 -52 10 -23 51 9 14 11 21
5 17 -6 -4 -4 6 5 22 13 22 24 29 53 30 63 4 84 -10 103 -68 9 -29 17 -83 17
-121 0 -57 3 -67 15 -63 12 5 15 33 15 160 0 150 1 155 22 163 12 4 30 6 40 3
15 -4 18 -20 20 -129 l3 -124 34 26 35 25 -33 0 -34 0 7 43 c6 42 35 77 62 77
10 0 14 13 14 40 0 22 11 66 24 98 13 31 27 74 31 94 5 27 14 39 35 48 32 13
50 53 50 112 0 35 -3 39 -30 45 -30 6 -31 6 -24 52 4 25 11 48 17 50 31 12 49
44 44 78 -4 22 -1 46 8 63 13 25 13 30 -5 53 -19 24 -19 25 0 42 25 23 25 31
0 52 -13 12 -18 24 -14 40 8 31 -12 53 -47 53 -24 0 -29 4 -29 24 0 36 -24 52
-57 37 -14 -6 -26 -10 -27 -9 -1 2 -6 17 -12 33 -11 36 -46 45 -74 20 -17 -15
-19 -15 -24 3 -7 21 -45 42 -76 42 -10 0 -27 -10 -36 -23 l-17 -23 -23 23
c-29 28 -63 29 -92 3z m34 -355 c-8 -8 -20 -15 -27 -15 -9 0 -8 4 1 15 7 8 19
15 27 15 12 0 12 -2 -1 -15z m57 -2 c-7 -2 -19 -2 -25 0 -7 3 -2 5 12 5 14 0
19 -2 13 -5z m-107 -20 c-3 -4 -14 -8 -24 -9 -9 -2 -18 -8 -20 -13 -2 -6 -9
-11 -15 -11 -18 1 33 40 51 40 8 0 12 -3 8 -7z m84 -277 c0 -219 3 -286 13
-289 7 -2 6 -3 -3 -3 -13 1 -16 43 -20 289 -3 158 -2 287 3 287 4 0 7 -128 7
-284z m-96 238 c3 -9 2 -12 -5 -9 -5 4 -22 -1 -37 -11 -15 -10 -30 -17 -34
-16 -4 1 -10 -9 -13 -21 -4 -13 -12 -24 -20 -24 -7 0 -11 6 -8 14 3 7 9 13 13
13 5 0 11 9 15 19 4 12 12 18 21 14 7 -3 14 0 14 6 0 6 7 11 15 11 8 0 15 5
15 10 0 16 17 12 24 -6z m-1 -31 c3 -5 -6 -9 -20 -10 -19 -1 -22 1 -12 8 17
11 26 11 32 2z m-76 -67 c-2 -34 -20 -39 -31 -10 -3 9 -2 12 5 9 6 -4 13 2 16
14 8 31 12 26 10 -13z m-56 -19 c-10 -9 -11 -8 -5 6 3 10 9 15 12 12 3 -3 0
-11 -7 -18z m44 -55 c-2 -3 -11 1 -20 8 -12 10 -18 8 -35 -11 l-21 -24 7 25
c4 14 14 30 23 37 13 10 19 9 34 -9 10 -11 15 -23 12 -26z m-28 -28 c-3 -3
-12 -4 -19 -1 -8 3 -5 6 6 6 11 1 17 -2 13 -5z m-45 -92 c-6 -2 -9 -9 -6 -16
3 -7 -2 -19 -11 -26 -14 -11 -19 -10 -37 7 -27 27 -18 39 28 39 20 0 32 -2 26
-4z m238 -240 c0 -4 -9 -13 -20 -20 -22 -13 -27 -3 -8 16 14 14 28 16 28 4z
m-153 -34 c-3 -8 -6 -5 -6 6 -1 11 2 17 5 13 3 -3 4 -12 1 -19z m94 -25 c-9
-15 -10 -12 -10 17 0 29 1 32 10 18 7 -12 7 -24 0 -35z m104 17 c-3 -5 -1 -10
6 -10 7 0 10 -3 6 -6 -9 -9 -28 6 -22 17 4 5 8 9 11 9 3 0 2 -4 -1 -10z m-118
-45 c9 -24 -1 -27 -15 -5 -8 13 -8 20 -2 20 6 0 13 -7 17 -15z m120 9 c-3 -3
-12 -4 -19 -1 -8 3 -5 6 6 6 11 1 17 -2 13 -5z m-133 -56 c-7 -11 -7 -11 -24
22 -13 25 -13 25 8 6 12 -10 19 -23 16 -28z"/>
<path d="M1300 7985 c7 -8 20 -15 28 -15 13 0 12 3 -4 15 -25 19 -40 19 -24 0z"/>
<path d="M5652 8519 c-110 -55 -204 -126 -240 -179 -23 -33 -24 -41 -20 -172
3 -131 4 -137 29 -162 18 -18 26 -37 27 -67 1 -22 5 -45 8 -51 12 -20 74 -38
128 -38 66 0 92 19 115 81 23 62 47 59 72 -7 23 -60 51 -77 125 -76 91 2 119
23 129 93 4 31 15 58 27 69 18 17 21 35 26 152 6 170 2 180 -128 287 -70 58
-93 85 -83 95 3 3 -10 6 -30 6 -20 0 -37 5 -37 10 0 22 -54 7 -148 -41z m-13
-299 c59 -29 138 -30 214 -2 96 36 146 27 166 -29 14 -40 15 -169 1 -169 -5 0
-10 5 -10 11 0 17 -173 5 -232 -16 -45 -16 -51 -16 -95 0 -27 9 -84 19 -129
22 -67 5 -83 3 -97 -11 -16 -16 -17 -13 -17 66 0 99 20 142 72 156 38 10 65 4
127 -28z m24 -217 c30 -15 34 -37 13 -87 -18 -42 -61 -61 -123 -52 -74 10 -93
27 -93 85 0 49 9 65 45 74 31 8 127 -4 158 -20z m335 5 c13 -13 16 -86 4 -105
-11 -18 -77 -43 -112 -43 -46 0 -86 25 -99 61 -18 52 -14 69 22 84 40 18 168
20 185 3z"/>
<path d="M7826 8449 c-25 -20 -28 -20 -45 -5 -25 22 -40 20 -53 -9 -13 -29
-21 -31 -37 -11 -23 28 -50 26 -66 -5 -15 -28 -16 -29 -41 -13 -23 15 -27 15
-40 2 -9 -8 -18 -34 -21 -57 -4 -29 -10 -41 -22 -41 -14 0 -15 -18 -11 -177 3
-98 9 -184 13 -190 5 -8 4 -13 -2 -13 -30 0 0 -128 34 -147 9 -6 26 -39 38
-74 14 -39 39 -84 65 -115 39 -46 42 -55 42 -108 0 -32 -7 -70 -16 -87 -15
-30 -80 -68 -117 -69 -15 0 -17 -6 -11 -52 22 -184 86 -307 186 -359 45 -23
143 -26 193 -5 78 33 152 149 181 285 23 110 20 123 -29 144 -23 10 -49 22
-57 26 -8 5 -23 3 -33 -3 -28 -18 -52 4 -55 52 -3 36 1 43 32 67 33 25 49 65
26 65 -5 0 -10 -7 -10 -15 0 -9 -9 -15 -25 -15 -20 0 -25 5 -25 23 0 32 30 57
67 57 39 0 49 13 78 97 13 37 31 73 39 79 20 14 55 92 56 121 0 13 -8 28 -17
34 -16 10 -18 28 -15 192 2 100 0 198 -3 217 l-7 35 -18 -22 -18 -23 -18 57
c-26 78 -42 86 -93 45 -25 -20 -41 -28 -41 -19 0 20 -38 57 -59 57 -10 0 -30
-9 -45 -21z"/>
<path d="M11680 8363 c-57 -21 -99 -46 -126 -75 -37 -39 -67 -95 -59 -108 3
-6 1 -10 -4 -10 -7 0 -11 -27 -11 -69 l0 -68 -132 -9 c-129 -7 -131 -8 -68
-15 36 -4 94 -9 130 -11 59 -3 65 -5 68 -25 3 -19 -1 -23 -22 -23 -16 0 -27
-7 -31 -20 -9 -28 4 -97 21 -114 8 -9 14 -35 14 -65 0 -64 14 -103 35 -95 10
4 15 0 15 -10 0 -9 -4 -16 -9 -16 -9 0 7 -53 22 -78 5 -6 5 -32 2 -56 -6 -40
-4 -47 29 -84 20 -22 60 -50 88 -62 106 -46 273 -24 337 43 28 31 51 90 44
116 -4 14 5 43 23 79 23 45 30 73 33 137 2 54 8 83 17 88 41 23 34 155 -7 144
-18 -5 -19 2 -19 101 0 126 -15 168 -83 235 -55 56 -116 77 -216 76 -42 0 -83
-3 -91 -6z"/>
<path d="M3830 8316 c0 -8 7 -22 16 -30 14 -15 14 -17 0 -32 -9 -8 -16 -20
-16 -27 0 -6 6 -3 13 6 6 10 26 21 42 26 l30 8 -37 18 c-41 20 -52 40 -15 30
37 -12 68 -35 61 -47 -5 -7 -2 -9 7 -6 49 18 59 19 59 3 0 -12 -7 -14 -27 -9
-22 4 -25 3 -13 -5 8 -6 25 -11 37 -11 16 0 21 6 20 21 -2 23 -69 61 -93 52
-6 -2 -15 0 -19 6 -10 17 -65 14 -65 -3z m130 -26 c13 -8 13 -10 -2 -10 -9 0
-20 5 -23 10 -8 13 5 13 25 0z"/>
<path d="M3812 8260 c0 -14 2 -19 5 -12 2 6 2 18 0 25 -3 6 -5 1 -5 -13z"/>
<path d="M4025 8250 c18 -20 18 -21 0 -38 -16 -15 -17 -15 -6 0 8 11 9 18 1
23 -5 3 -10 2 -10 -4 0 -10 -45 0 -76 17 -29 16 -54 3 -54 -30 0 -28 -2 -30
-27 -23 -23 5 -25 4 -14 -9 15 -18 41 -21 41 -6 0 6 7 10 16 10 10 0 13 6 9
19 -5 18 21 39 33 26 3 -3 0 -5 -7 -5 -7 0 -9 -4 -6 -10 3 -5 20 -7 36 -3 21
4 34 1 40 -8 18 -28 9 -38 -38 -41 -44 -3 -42 -4 20 -8 53 -4 64 -2 52 7 -11
7 -13 13 -5 18 6 4 17 1 25 -5 8 -6 19 -9 24 -6 5 4 13 2 16 -4 4 -6 3 -10 -2
-9 -21 4 -33 -2 -33 -16 0 -18 16 -20 23 -2 4 8 6 7 6 -3 0 -8 -3 -21 -8 -29
-7 -12 -14 -10 -36 8 -24 18 -40 21 -114 20 -139 -2 -134 2 -133 -108 0 -51 3
-96 7 -99 3 -3 23 11 44 32 25 25 45 37 55 33 19 -8 21 -58 4 -75 -9 -9 -2
-12 35 -12 47 0 97 16 97 32 0 4 3 8 8 8 4 0 6 -57 4 -127 -3 -173 -34 -305
-81 -347 -17 -16 -21 -31 -21 -85 l0 -66 60 -44 c33 -24 64 -49 67 -55 8 -12
33 -239 27 -245 -2 -2 -19 6 -38 17 l-34 20 -17 -46 c-24 -64 -58 -108 -106
-134 -35 -21 -42 -31 -60 -93 -12 -38 -24 -74 -29 -78 -4 -5 -13 13 -19 40
-27 108 -32 123 -45 123 -26 0 -98 62 -128 111 -35 55 -27 56 -100 -10 -15
-13 -31 -22 -34 -18 -4 3 2 81 12 172 l18 166 73 34 73 34 0 53 c0 50 -3 57
-40 93 -41 40 -56 75 -86 203 -12 49 -24 77 -36 83 -10 6 -15 15 -12 21 4 6 3
8 -4 4 -6 -3 -19 -41 -29 -84 -24 -106 -22 -289 5 -395 l20 -78 -23 -9 c-12
-5 -42 -14 -66 -20 -24 -7 -67 -21 -95 -31 -45 -17 -54 -26 -69 -61 -23 -57
-37 -242 -29 -371 l6 -107 587 2 586 3 -1 225 c0 147 -4 235 -12 253 -13 31
-64 56 -169 84 -64 17 -65 18 -58 48 3 16 8 101 12 187 6 163 -8 267 -44 345
-14 29 -13 37 6 88 21 56 21 93 0 146 -7 17 -6 33 1 50 9 22 10 20 5 -11 -3
-24 -2 -30 4 -21 7 11 11 6 14 -20 2 -19 3 -11 1 16 -2 28 -8 68 -15 90 l-11
39 -14 -24 -15 -25 7 25 c4 14 8 30 10 35 2 6 -5 21 -16 35 -14 17 -18 19 -14
7 6 -17 5 -18 -14 -6 -13 8 -18 17 -12 24 8 10 -21 55 -36 55 -4 0 1 -9 11
-20z m82 -182 c-3 -8 -6 -5 -6 6 -1 11 2 17 5 13 3 -3 4 -12 1 -19z"/>
<path d="M5424 7778 c5 -135 72 -233 191 -277 98 -37 203 -28 293 24 24 14 49
22 55 18 7 -3 9 -3 5 2 -4 4 4 22 17 39 46 60 65 116 65 194 0 41 -4 72 -10
72 -5 0 -10 -19 -10 -43 0 -118 -59 -203 -146 -213 -42 -5 -55 -2 -87 20 -47
32 -57 32 -103 1 -20 -14 -50 -25 -67 -25 -44 0 -111 36 -139 73 -30 40 -37
57 -54 132 l-13 60 3 -77z"/>
<path d="M2052 7491 c-18 -11 -12 -163 6 -169 11 -3 12 0 5 14 -6 11 -7 50 -3
89 4 39 6 71 6 72 -1 1 -7 -2 -14 -6z"/>
<path d="M2157 7488 c5 -7 11 -31 12 -53 4 -61 11 -56 11 8 0 46 -3 57 -16 57
-12 0 -14 -4 -7 -12z"/>
<path d="M1046 7459 c-49 -16 -115 -43 -147 -60 -69 -37 -86 -67 -125 -215
-23 -88 -27 -124 -31 -314 -2 -118 0 -221 5 -228 6 -9 77 -12 314 -10 l306 3
-67 100 c-114 171 -211 351 -211 391 0 40 19 74 47 86 16 7 30 13 32 15 5 3
-44 69 -81 109 -36 38 -29 63 31 117 23 20 35 37 29 36 -7 0 -53 -13 -102 -30z"/>
<path d="M12076 7483 c-3 -4 -6 -18 -6 -33 0 -14 -11 -41 -25 -60 -14 -19 -26
-45 -26 -59 -1 -14 -3 -19 -6 -10 -3 13 -11 12 -56 -10 -42 -21 -69 -26 -153
-29 -114 -5 -186 11 -247 52 l-35 24 5 -36 c11 -70 53 -223 79 -285 28 -66 78
-145 103 -163 9 -7 27 -21 41 -33 l25 -21 -37 21 c-51 28 -81 66 -122 152 -35
73 -95 270 -97 316 -1 30 -5 21 -13 -30 -4 -19 -14 -44 -24 -55 -31 -33 -32
-50 -6 -85 13 -19 27 -51 31 -72 3 -21 14 -43 23 -50 10 -7 31 -37 47 -67 20
-36 37 -56 51 -58 12 -2 36 -21 55 -42 29 -35 39 -39 94 -45 l61 -7 33 37 c18
20 42 41 54 45 12 5 34 32 49 63 14 30 33 58 41 61 9 3 15 18 15 36 0 37 25
100 39 100 6 0 11 22 11 49 0 27 5 62 11 78 17 45 20 210 4 217 -7 2 -16 2
-19 -1z m-69 -225 c-3 -7 -5 -2 -5 12 0 14 2 19 5 13 2 -7 2 -19 0 -25z m-13
-72 c-3 -21 -8 -35 -11 -32 -2 2 -1 20 3 40 3 21 8 35 11 32 2 -2 1 -20 -3
-40z m-20 -90 c-3 -15 -8 -25 -11 -23 -2 3 -1 17 3 31 3 15 8 25 11 23 2 -3 1
-17 -3 -31z m-67 -183 c-9 -15 -30 -41 -48 -58 -33 -30 -33 -30 3 11 20 23 39
52 43 64 4 12 9 19 12 17 2 -3 -2 -18 -10 -34z m-90 -89 c-3 -3 -12 -4 -19 -1
-8 3 -5 6 6 6 11 1 17 -2 13 -5z"/>
<path d="M1266 7423 c24 -275 84 -516 180 -730 l28 -63 553 0 553 0 0 118 c0
130 -20 301 -46 392 l-17 60 -48 0 -49 0 0 35 c0 33 2 35 36 35 28 0 35 3 32
18 -2 11 -14 18 -35 20 -25 3 -34 10 -42 34 -6 17 -11 42 -11 54 0 13 -4 24
-10 24 -5 0 -10 -25 -10 -55 l0 -55 -40 0 -40 0 0 74 c0 70 -7 86 -36 86 -2 0
-4 -36 -4 -80 l0 -80 -35 0 c-21 0 -35 -5 -35 -12 0 -9 -4 -8 -10 2 -8 13 -10
12 -10 -4 0 -11 -7 -27 -16 -37 -19 -21 -11 -39 16 -39 31 0 53 -44 48 -93 -5
-42 -22 -86 -81 -209 -30 -64 -55 -91 -44 -48 3 12 1 18 -5 14 -5 -3 -7 -17
-4 -30 5 -17 -7 -47 -39 -105 -25 -45 -45 -85 -45 -89 0 -13 -28 -20 -75 -20
l-44 0 13 33 c8 17 17 51 21 75 4 23 11 42 16 42 5 0 9 10 9 23 1 34 46 183
52 167 2 -7 4 4 4 26 0 21 6 59 12 84 18 73 39 184 39 203 0 13 -9 17 -38 17
-21 0 -41 5 -44 10 -19 30 -56 -61 -114 -280 -23 -90 -74 -264 -98 -338 l-17
-53 -40 2 c-23 1 -48 -2 -57 -5 -13 -6 -25 20 -68 151 -29 87 -67 201 -85 253
-19 52 -51 150 -72 218 l-39 124 -57 44 -57 44 5 -57z m1037 -600 c-35 -2 -91
-2 -125 0 -35 2 -7 3 62 3 69 0 97 -1 63 -3z"/>
<path d="M12140 7455 c0 -13 5 -27 10 -30 11 -7 14 -108 3 -118 -3 -4 -7 -31
-8 -61 -1 -30 -6 -61 -12 -68 -6 -7 -18 -51 -27 -97 -31 -152 -64 -226 -133
-293 -54 -52 -104 -71 -188 -70 -97 1 -181 44 -242 123 -46 59 -116 231 -116
282 0 36 -39 77 -72 77 -22 0 -25 5 -25 35 0 28 4 35 19 35 30 0 51 11 51 26
0 9 -11 14 -29 14 -38 0 -53 20 -59 80 -6 68 -22 53 -22 -21 l0 -59 -40 0 -40
0 0 40 c0 38 -1 39 -20 28 -12 -8 -20 -24 -20 -40 0 -25 -4 -28 -34 -28 -42 0
-81 -42 -126 -135 -52 -106 -65 -173 -65 -347 0 -95 4 -161 10 -167 12 -12
1633 -17 1644 -5 3 3 6 87 6 187 0 201 -10 261 -66 374 -56 117 -157 190 -331
241 l-68 20 0 -23z"/>
<path d="M1616 7443 c-17 -23 -17 -26 -2 -41 21 -21 28 -12 24 31 l-3 35 -19
-25z"/>
<path d="M11390 7450 c0 -13 5 -18 15 -14 8 4 15 12 15 20 0 8 -7 14 -15 14
-8 0 -15 -9 -15 -20z"/>
<path d="M6045 7390 c-106 -93 -125 -116 -124 -148 0 -16 3 -21 6 -12 4 8 21
30 40 47 l33 33 -6 -27 c-4 -16 -10 -32 -13 -38 -4 -5 -20 -52 -36 -103 -19
-61 -32 -88 -38 -80 -5 8 -6 5 -2 -9 3 -12 -1 -35 -10 -52 -8 -17 -16 -34 -16
-38 -1 -38 -80 -286 -93 -296 -6 -4 -19 -5 -29 -3 -10 2 -21 -2 -24 -10 -4
-12 -56 -14 -313 -14 l-307 0 -7 158 c-4 94 -2 173 4 197 12 50 12 55 1 55
-26 0 -54 -177 -50 -307 l4 -102 -100 -4 c-55 -1 296 -4 779 -5 l879 -2 -6
153 c-15 378 -125 566 -380 653 -39 13 -80 24 -91 24 -12 0 -57 -32 -101 -70z"/>
<path d="M7976 7453 c-12 -12 -6 -43 9 -43 8 0 15 9 15 19 0 21 -13 34 -24 24z"/>
<path d="M5290 7440 c-9 -6 -10 -10 -3 -10 6 0 15 5 18 10 8 12 4 12 -15 0z"/>
<path d="M5325 7440 c3 -5 8 -10 11 -10 2 0 4 5 4 10 0 6 -5 10 -11 10 -5 0
-7 -4 -4 -10z"/>
<path d="M5205 7404 c-44 -28 -39 -28 17 0 34 18 37 18 53 2 10 -9 20 -14 23
-11 6 6 -28 34 -43 35 -5 0 -28 -12 -50 -26z"/>
<path d="M5350 7426 c0 -3 15 -15 33 -27 l32 -23 -24 27 c-22 24 -41 35 -41
23z"/>
<path d="M1940 7395 c-8 -9 -8 -15 -2 -15 12 0 26 19 19 26 -2 2 -10 -2 -17
-11z"/>
<path d="M5226 7391 c-4 -5 3 -7 14 -4 23 6 26 13 6 13 -8 0 -17 -4 -20 -9z"/>
<path d="M5330 7389 c0 -5 5 -7 10 -4 6 3 10 8 10 11 0 2 -4 4 -10 4 -5 0 -10
-5 -10 -11z"/>
<path d="M11400 7390 c0 -5 5 -10 10 -10 6 0 10 5 10 10 0 6 -4 10 -10 10 -5
0 -10 -4 -10 -10z"/>
<path d="M12130 7370 c0 -5 5 -10 10 -10 6 0 10 5 10 10 0 6 -4 10 -10 10 -5
0 -10 -4 -10 -10z"/>
<path d="M5440 7351 c0 -5 7 -12 16 -15 14 -5 15 -4 4 9 -14 17 -20 19 -20 6z"/>
<path d="M1634 7318 c-47 -54 -48 -57 -29 -78 17 -19 17 -24 0 -129 -20 -121
-24 -97 41 -281 28 -79 56 -125 47 -76 -5 26 12 37 20 14 2 -7 2 -3 0 10 -6
38 37 184 63 213 26 27 30 39 14 39 -5 0 -10 -7 -10 -15 0 -8 -4 -15 -8 -15
-4 0 -20 50 -35 111 -25 104 -26 113 -11 130 15 16 15 20 -3 43 -12 17 -28 25
-47 26 -21 0 -27 4 -22 15 8 21 3 19 -20 -7z"/>
<path d="M5050 7301 c-14 -13 -18 -20 -10 -13 9 6 28 9 43 8 32 -4 32 -4 9 15
-16 14 -20 13 -42 -10z"/>
<path d="M5447 7306 c-4 -11 -1 -13 10 -9 10 4 14 2 9 -5 -3 -6 -2 -13 4 -17
15 -9 12 21 -4 34 -10 9 -15 8 -19 -3z"/>
<path d="M1857 7295 c-4 -8 -2 -17 3 -20 6 -4 10 -4 10 -1 0 2 3 11 6 20 3 9
2 16 -4 16 -5 0 -12 -7 -15 -15z"/>
<path d="M5708 7278 c-40 -53 -41 -58 -23 -72 17 -12 17 -18 -2 -120 l-20
-107 39 -104 c21 -58 38 -112 38 -120 0 -8 6 -15 13 -15 7 0 22 36 36 86 17
60 27 82 33 72 7 -9 8 -7 3 8 -3 12 -2 31 3 43 5 15 -1 58 -21 133 -26 102
-27 111 -11 122 11 9 14 18 8 28 -12 20 -62 78 -67 78 -3 0 -16 -15 -29 -32z"/>
<path d="M5024 7237 c-1 -18 -5 -41 -9 -52 -6 -16 -5 -18 5 -8 14 13 23 80 12
87 -4 2 -8 -10 -8 -27z"/>
<path d="M1881 7224 c0 -11 3 -14 6 -6 3 7 2 16 -1 19 -3 4 -6 -2 -5 -13z"/>
<path d="M12100 7226 c0 -9 5 -16 10 -16 6 0 10 4 10 9 0 6 -4 13 -10 16 -5 3
-10 -1 -10 -9z"/>
<path d="M4983 7213 c-4 -9 -15 -25 -25 -35 -10 -10 -18 -22 -18 -28 0 -5 11
2 25 16 14 14 25 32 25 40 0 9 5 12 12 8 7 -4 8 -3 4 4 -10 16 -15 15 -23 -5z"/>
<path d="M5911 7184 c0 -11 3 -14 6 -6 3 7 2 16 -1 19 -3 4 -6 -2 -5 -13z"/>
<path d="M2185 7170 c3 -5 8 -10 11 -10 2 0 4 5 4 10 0 6 -5 10 -11 10 -5 0
-7 -4 -4 -10z"/>
<path d="M2171 7134 c0 -11 3 -14 6 -6 3 7 2 16 -1 19 -3 4 -6 -2 -5 -13z"/>
<path d="M5530 7103 c0 -13 5 -23 10 -23 13 0 13 11 0 30 -8 12 -10 11 -10 -7z"/>
<path d="M2185 7100 c-3 -5 -1 -10 4 -10 6 0 11 5 11 10 0 6 -2 10 -4 10 -3 0
-8 -4 -11 -10z"/>
<path d="M4917 7096 c-10 -25 -8 -34 3 -16 7 11 11 3 16 -30 l8 -45 8 39 c5
21 6 41 3 44 -3 3 -5 -3 -5 -14 -1 -14 -4 -11 -14 11 -10 25 -13 27 -19 11z"/>
<path d="M12057 7091 c-3 -14 0 -21 9 -21 16 0 18 9 5 28 -6 10 -10 9 -14 -7z"/>
<path d="M5866 7049 c-9 -29 -16 -57 -15 -63 0 -6 9 16 20 49 10 32 16 61 14
63 -2 2 -11 -20 -19 -49z"/>
<path d="M11457 7094 c-8 -8 1 -24 14 -24 5 0 9 7 9 15 0 15 -12 20 -23 9z"/>
<path d="M2062 7070 c0 -14 2 -19 5 -12 2 6 2 18 0 25 -3 6 -5 1 -5 -13z"/>
<path d="M2171 7058 c0 -9 -4 -25 -7 -35 -5 -17 -5 -17 6 0 6 10 9 25 7 35 -4
15 -5 15 -6 0z"/>
<path d="M4922 7030 c0 -14 2 -19 5 -12 2 6 2 18 0 25 -3 6 -5 1 -5 -13z"/>
<path d="M4886 7004 c-4 -14 -5 -28 -3 -31 3 -2 8 8 11 23 4 14 5 28 3 31 -3
2 -8 -8 -11 -23z"/>
<path d="M11475 6999 c30 -103 100 -196 176 -234 59 -31 73 -32 57 -5 -7 11
-22 20 -34 20 -21 0 -63 39 -83 78 -7 13 -23 27 -36 32 -24 9 -65 75 -65 104
0 8 -5 18 -11 22 -8 4 -9 -1 -4 -17z"/>
<path d="M12059 7013 c-1 -5 -3 -18 -4 -31 -3 -34 -37 -91 -58 -98 -10 -3 -29
-22 -42 -42 -42 -64 -51 -72 -82 -72 -17 0 -36 -7 -43 -15 -8 -9 -30 -15 -58
-15 -25 0 -43 -3 -40 -6 3 -3 29 -5 56 -6 113 0 189 50 245 164 39 80 53 128
37 128 -5 0 -11 -3 -11 -7z"/>
<path d="M5601 6964 c0 -11 3 -14 6 -6 3 7 2 16 -1 19 -3 4 -6 -2 -5 -13z"/>
<path d="M2110 6965 c0 -5 5 -17 10 -25 5 -8 10 -10 10 -5 0 6 -5 17 -10 25
-5 8 -10 11 -10 5z"/>
<path d="M11526 6962 c-2 -4 -1 -14 4 -21 10 -17 31 -5 23 14 -6 16 -19 20
-27 7z"/>
<path d="M11994 6949 c-3 -6 -2 -15 4 -21 7 -7 14 -3 21 11 10 17 9 21 -3 21
-8 0 -18 -5 -22 -11z"/>
<path d="M2090 6925 c0 -8 4 -15 10 -15 5 0 7 7 4 15 -4 8 -8 15 -10 15 -2 0
-4 -7 -4 -15z"/>
<path d="M5611 6924 c0 -11 3 -14 6 -6 3 7 2 16 -1 19 -3 4 -6 -2 -5 -13z"/>
<path d="M4862 6880 c0 -19 2 -27 5 -17 2 9 2 25 0 35 -3 9 -5 1 -5 -18z"/>
<path d="M5821 6854 c0 -11 3 -14 6 -6 3 7 2 16 -1 19 -3 4 -6 -2 -5 -13z"/>
<path d="M1731 6844 c0 -11 3 -14 6 -6 3 7 2 16 -1 19 -3 4 -6 -2 -5 -13z"/>
<path d="M11635 6850 c-7 -12 2 -30 16 -30 12 0 12 27 0 35 -5 3 -12 1 -16 -5z"/>
<path d="M11895 6840 c-11 -17 5 -32 21 -19 7 6 11 15 8 20 -7 12 -21 11 -29
-1z"/>
<path d="M5810 6821 c0 -6 4 -13 10 -16 6 -3 7 1 4 9 -7 18 -14 21 -14 7z"/>
<path d="M2031 6784 c0 -11 3 -14 6 -6 3 7 2 16 -1 19 -3 4 -6 -2 -5 -13z"/>
<path d="M4853 6715 c0 -44 2 -61 4 -37 2 23 2 59 0 80 -2 20 -4 1 -4 -43z"/>
<path d="M5792 6770 c0 -14 2 -19 5 -12 2 6 2 18 0 25 -3 6 -5 1 -5 -13z"/>
<path d="M11773 6783 c-18 -7 -16 -23 2 -23 8 0 15 7 15 15 0 8 -1 15 -2 14
-2 0 -9 -3 -15 -6z"/>
<path d="M5775 6720 c3 -5 8 -10 11 -10 2 0 4 5 4 10 0 6 -5 10 -11 10 -5 0
-7 -4 -4 -10z"/>
<path d="M1711 6684 c0 -11 3 -14 6 -6 3 7 2 16 -1 19 -3 4 -6 -2 -5 -13z"/>
<path d="M5701 6683 c-1 -12 4 -25 9 -28 12 -7 12 2 0 30 -8 19 -9 19 -9 -2z"/>
<path d="M5910 5641 c-36 -22 -68 -37 -72 -35 -5 3 -8 19 -8 36 0 37 0 37
-127 -43 -226 -143 -306 -208 -299 -242 27 -130 58 -480 50 -569 -8 -103 2
-129 101 -268 99 -139 109 -148 169 -155 92 -10 115 2 173 85 29 41 69 107 89
147 l37 72 -7 110 c-4 74 -1 153 9 243 18 161 55 591 51 595 -1 2 -25 -4 -52
-12 -74 -22 -76 -21 -54 30 11 25 16 45 12 45 -4 0 -36 -18 -72 -39z m-227
-452 c89 -20 184 -21 268 -3 26 6 27 4 33 -43 3 -26 7 -75 8 -108 l3 -60 -262
-3 -263 -2 0 42 c1 77 18 181 32 189 22 14 83 10 181 -12z m13 -257 c-41 -80
-139 -100 -202 -41 -13 12 -24 33 -24 46 0 23 1 23 120 23 l121 0 -15 -28z
m304 11 c0 -10 -8 -28 -18 -39 -56 -70 -165 -56 -207 27 l-16 29 121 0 c108 0
120 -2 120 -17z m-233 -28 c11 -23 31 -42 58 -55 53 -26 71 -25 129 4 l47 24
-6 -42 c-12 -78 -24 -131 -40 -176 -24 -69 -105 -142 -105 -95 0 32 -24 65
-56 75 -64 21 -131 -9 -149 -67 -3 -13 -10 -23 -14 -23 -10 0 -92 86 -114 120
-17 26 -35 95 -44 169 l-5 44 29 -21 c47 -33 91 -36 143 -10 25 13 49 32 55
43 29 57 48 60 72 10z m53 -320 c23 -28 -5 -45 -77 -45 -66 0 -82 11 -69 45 4
11 22 15 69 15 45 0 68 -5 77 -15z"/>
<path d="M1591 5348 c-108 -9 -191 -48 -255 -119 -106 -118 -136 -333 -67
-474 29 -59 81 -121 81 -97 0 7 5 12 10 12 6 0 10 -16 10 -35 0 -43 25 -61 96
-71 75 -9 119 8 141 56 24 52 57 55 76 8 8 -18 21 -39 30 -46 38 -32 163 -26
199 10 l20 20 -7 -43 c-12 -75 -45 -162 -76 -201 -28 -35 -30 -43 -27 -110 l3
-73 70 -37 c39 -20 75 -41 82 -47 6 -5 14 -57 17 -118 4 -59 8 -127 11 -150 3
-24 1 -43 -4 -43 -5 0 -34 15 -65 33 -52 30 -57 36 -77 97 -12 36 -25 69 -29
73 -4 5 -38 -26 -75 -67 -38 -42 -73 -76 -80 -76 -6 0 -48 36 -93 81 -45 45
-82 74 -82 66 0 -8 -7 -47 -16 -86 -14 -62 -20 -73 -50 -92 -19 -11 -32 -25
-29 -30 4 -5 -1 -6 -9 -3 -8 3 -24 -4 -36 -16 -12 -12 -24 -19 -27 -16 -3 2
-4 68 -4 145 2 130 1 141 -16 140 -11 0 -13 -3 -5 -6 6 -2 12 -10 12 -16 0 -8
-4 -7 -12 1 -17 17 -33 15 -18 -3 18 -22 8 -25 -12 -4 -16 17 -15 19 17 31 35
12 50 34 18 24 -84 -23 -206 -62 -240 -77 -47 -20 -67 -53 -83 -138 -15 -80
-13 -91 11 -88 11 2 24 8 27 14 4 6 7 -80 7 -190 l0 -202 69 -3 c49 -2 72 1
77 10 7 10 9 10 9 1 0 -10 122 -13 575 -13 l575 0 -2 268 c-3 295 -4 300 -66
331 -38 19 -229 81 -249 81 -22 0 -22 17 1 66 39 82 56 172 57 295 0 125 -13
190 -55 265 -15 26 -24 55 -21 65 6 19 -10 35 -20 19 -3 -5 -15 -10 -25 -10
-13 0 -20 -8 -22 -27 -2 -19 -8 -27 -18 -24 -33 9 -168 2 -220 -11 -46 -12
-63 -12 -105 -1 -27 7 -93 13 -146 14 l-96 0 -6 47 c-3 26 -9 56 -13 67 -6 14
7 7 40 -22 61 -53 119 -73 218 -73 130 0 198 40 251 150 33 68 34 70 53 53 11
-10 24 -28 29 -40 l10 -23 33 26 c34 27 42 54 17 54 -8 0 -15 -7 -15 -15 0 -9
-9 -15 -25 -15 -20 0 -25 5 -25 25 0 55 91 71 125 22 18 -26 18 -19 4 58 -25
135 -102 241 -210 290 -76 34 -140 42 -248 33z m-3 -662 c15 -9 16 -50 2 -76
-22 -41 -133 -50 -187 -14 -17 11 -23 24 -23 53 0 33 4 41 26 48 27 9 163 1
182 -11z m320 2 c15 -15 16 -53 2 -78 -14 -26 -101 -43 -150 -30 -45 12 -57
25 -62 65 -2 23 2 32 22 42 32 16 172 17 188 1z m29 -55 c-3 -10 -5 -4 -5 12
0 17 2 24 5 18 2 -7 2 -21 0 -30z m-827 -653 c-8 -5 -19 -10 -25 -10 -5 0 -3
5 5 10 8 5 20 10 25 10 6 0 3 -5 -5 -10z m-50 -36 c0 -2 -7 -4 -15 -4 -8 0
-15 4 -15 10 0 5 7 7 15 4 8 -4 15 -8 15 -10z m495 -23 c-3 -2 -11 1 -18 7 -8
7 -18 8 -22 4 -5 -4 -5 -1 -1 5 5 10 11 10 26 1 11 -7 17 -14 15 -17z m-542
-121 c-3 -11 -10 -23 -16 -27 -7 -4 -8 0 -4 11 4 10 7 24 7 32 0 9 4 13 9 10
5 -3 7 -15 4 -26z m494 14 c-3 -3 -12 -4 -19 -1 -8 3 -5 6 6 6 11 1 17 -2 13
-5z"/>
<path d="M7670 5302 c0 -6 5 -22 11 -36 12 -26 5 -76 -11 -76 -6 0 -10 7 -10
15 0 20 -6 19 -40 -5 -33 -24 -41 -18 -29 22 8 29 8 30 -10 14 -10 -10 -34
-45 -52 -79 -27 -52 -34 -75 -37 -142 -3 -67 20 -290 32 -302 2 -2 6 9 9 24 7
35 54 105 89 132 l26 21 43 -36 c91 -76 233 -125 314 -109 22 4 33 10 25 13
-8 3 -18 9 -21 14 -4 6 -15 5 -27 -3 -18 -11 -24 -10 -41 5 -34 31 -27 69 19
109 40 34 53 67 25 67 -8 0 -15 -6 -15 -13 0 -7 -11 -14 -25 -15 -34 -3 -33
30 1 57 33 26 45 26 78 0 26 -21 27 -24 25 -116 -1 -59 3 -99 10 -106 6 -6 11
-20 11 -31 0 -38 17 -2 35 73 14 56 17 99 13 185 -6 125 -20 169 -67 209 -40
33 -57 35 -36 3 12 -18 13 -26 4 -32 -16 -10 -41 26 -35 51 2 11 7 31 11 45 5
18 0 14 -19 -15 -14 -22 -26 -46 -26 -54 0 -11 -3 -11 -16 0 -13 10 -17 10
-24 -1 -5 -8 -10 -12 -12 -10 -2 3 -19 23 -38 45 l-33 39 6 -41 c6 -38 5 -41
-14 -36 -11 3 -23 12 -26 20 -5 11 -9 11 -24 -3 -11 -9 -19 -13 -19 -7 0 5
-18 34 -40 63 -22 29 -40 49 -40 42z"/>
<path d="M11797 5200 c-16 -5 -35 -14 -43 -21 -11 -9 -23 -9 -53 0 -77 23
-134 9 -194 -48 -44 -40 -49 -56 -36 -101 11 -36 10 -43 -13 -77 -41 -60 -41
-72 -3 -152 19 -40 35 -79 35 -87 0 -17 20 -19 21 -1 1 26 9 83 13 93 3 8 28
11 70 9 42 -1 63 2 59 8 -4 6 0 8 10 4 10 -4 14 -2 12 6 -3 7 4 23 14 36 l18
24 35 -21 c20 -12 43 -22 52 -22 9 0 16 -4 16 -10 0 -5 -4 -10 -10 -10 -24 0
28 -36 54 -38 16 -2 60 -10 98 -18 37 -9 72 -13 76 -10 5 3 17 -3 27 -14 10
-11 21 -17 25 -15 4 3 10 -5 13 -16 l6 -21 28 22 c61 48 77 99 46 150 -16 27
-16 31 2 63 33 63 1 162 -67 202 -22 13 -42 15 -96 9 -66 -6 -69 -5 -85 19
-10 15 -33 31 -54 36 -43 12 -38 12 -76 1z m48 -340 c-3 -5 -12 -10 -18 -10
-7 0 -6 4 3 10 19 12 23 12 15 0z"/>
<path d="M3622 5082 c-107 -38 -153 -109 -160 -249 -5 -91 10 -183 29 -183 5
0 9 29 9 65 0 86 19 132 64 150 41 17 342 20 393 4 54 -17 73 -55 73 -143 0
-57 3 -76 13 -76 36 0 50 184 21 279 -19 64 -84 134 -140 151 -22 7 -86 14
-144 16 -85 4 -115 1 -158 -14z"/>
<path d="M11710 4871 c0 -6 4 -13 10 -16 6 -3 7 1 4 9 -7 18 -14 21 -14 7z"/>
<path d="M1982 4858 c-17 -17 -15 -48 3 -48 10 0 15 10 15 30 0 34 -1 35 -18
18z"/>
<path d="M7980 4855 c-14 -17 -10 -47 8 -53 8 -2 12 8 12 32 0 40 -2 42 -20
21z"/>
<path d="M9804 4816 c-3 -7 -4 -38 -2 -67 l3 -54 60 -7 c33 -4 72 -9 87 -12
25 -5 26 -4 17 23 -13 36 -76 101 -116 117 -40 17 -42 17 -49 0z"/>
<path d="M9728 4813 c7 -3 16 -2 19 1 4 3 -2 6 -13 5 -11 0 -14 -3 -6 -6z"/>
<path d="M9621 4724 c0 -11 3 -14 6 -6 3 7 2 16 -1 19 -3 4 -6 -2 -5 -13z"/>
<path d="M9655 4730 c-3 -5 -1 -10 4 -10 6 0 11 5 11 10 0 6 -2 10 -4 10 -3 0
-8 -4 -11 -10z"/>
<path d="M7552 4703 c-21 -4 -23 -8 -17 -51 11 -82 14 -89 47 -103 43 -18 120
-16 150 3 13 9 30 34 37 57 16 56 46 57 62 1 15 -49 36 -69 83 -77 40 -6 120
12 136 32 6 7 12 29 13 49 2 19 6 38 10 42 4 4 7 15 7 25 0 34 -149 36 -243 3
-34 -12 -46 -12 -84 1 -44 15 -159 25 -201 18z"/>
<path d="M12133 4685 c0 -8 4 -15 9 -15 4 0 8 4 8 9 0 6 -4 12 -8 15 -5 3 -9
-1 -9 -9z"/>
<path d="M12105 4683 c3 -7 1 -13 -4 -13 -6 0 -11 -5 -11 -11 0 -5 5 -7 10 -4
6 4 17 2 25 -5 9 -8 15 -8 20 0 4 6 2 9 -4 8 -5 -2 -17 6 -26 17 -9 11 -14 14
-10 8z"/>
<path d="M3505 4630 c-10 -17 24 -75 54 -93 63 -37 142 -13 176 54 21 39 50
38 70 -4 42 -88 184 -89 221 -2 8 19 14 39 14 45 0 14 -526 14 -535 0z"/>
<path d="M12092 4610 c0 -14 2 -19 5 -12 2 6 2 18 0 25 -3 6 -5 1 -5 -13z"/>
<path d="M12141 4614 c0 -11 3 -14 6 -6 3 7 2 16 -1 19 -3 4 -6 -2 -5 -13z"/>
<path d="M12121 4574 c0 -11 3 -14 6 -6 3 7 2 16 -1 19 -3 4 -6 -2 -5 -13z"/>
<path d="M8065 4544 c-14 -65 -38 -113 -72 -148 -20 -20 -40 -36 -44 -36 -4 0
-20 11 -36 24 -75 62 -134 63 -203 1 -47 -41 -59 -40 -111 14 -27 28 -51 62
-55 76 -10 41 -24 28 -24 -22 1 -45 9 -96 24 -154 l7 -25 -83 12 c-91 13 -98
10 -98 -39 0 -31 -13 -39 -163 -92 -135 -47 -184 -110 -173 -219 4 -34 7 -68
7 -76 1 -8 -8 -51 -20 -94 -21 -81 -29 -261 -15 -348 l7 -38 792 0 793 0 8 77
c10 109 -2 285 -24 365 -12 43 -17 85 -14 117 6 61 -24 129 -72 166 -18 13
-76 40 -130 60 -134 48 -136 50 -136 90 0 18 -4 36 -9 39 -5 3 -43 0 -85 -7
-42 -7 -76 -12 -76 -11 0 1 7 31 16 65 11 45 15 86 11 142 -6 87 -13 105 -22
61z m-475 -336 c54 -106 140 -155 256 -145 80 6 105 22 155 99 34 53 39 58 39
34 0 -116 -178 -197 -336 -151 -107 31 -157 87 -147 163 3 23 7 42 8 42 2 0
13 -19 25 -42z"/>
<path d="M11490 4521 c0 -69 20 -145 50 -194 17 -27 28 -53 24 -58 -3 -5 -2
-8 3 -7 4 1 28 -9 53 -24 50 -29 139 -58 180 -58 27 0 27 -1 20 -42 -5 -24 -6
-47 -3 -52 4 -5 -18 -7 -52 -3 -61 6 -169 52 -160 68 4 5 1 9 -5 9 -14 0 -49
60 -44 75 4 10 -8 10 -63 0 -275 -54 -440 -200 -500 -441 -18 -74 -24 -290
-10 -356 l8 -38 819 0 819 0 7 46 c3 25 4 116 2 203 -5 132 -10 168 -32 236
-65 204 -201 302 -488 355 -80 15 -82 21 -38 105 26 49 30 68 30 136 0 46 -4
79 -10 79 -5 0 -10 -20 -10 -44 0 -25 -4 -47 -9 -50 -5 -3 -7 -15 -4 -26 3
-11 0 -20 -6 -20 -6 0 -8 -7 -4 -17 4 -11 3 -14 -5 -9 -7 4 -10 2 -7 -6 7 -18
-10 -42 -24 -34 -6 4 -11 12 -11 17 0 6 6 7 13 2 6 -4 4 4 -5 19 -16 24 -16
27 0 41 9 8 24 12 32 10 13 -4 13 -3 0 6 -13 10 -13 11 0 11 8 1 4 6 -9 11
-13 5 -29 8 -35 5 -6 -2 -2 -5 9 -6 18 -1 17 -2 -5 -15 -49 -26 -93 -28 -118
-5 -26 24 -82 44 -82 29 0 -5 -15 -9 -33 -9 -18 0 -43 -7 -56 -16 -17 -12 -39
-15 -87 -12 -35 2 -64 1 -64 -3 0 -14 120 -39 195 -39 44 -1 100 -1 125 -2 25
0 59 3 76 7 31 7 31 7 29 -29 -2 -20 1 -38 6 -41 5 -4 6 2 2 11 -4 12 -3 15 5
10 21 -13 13 -27 -24 -42 -39 -16 -110 -15 -107 1 1 6 -6 11 -15 12 -9 1 -32
5 -50 9 -25 5 -38 2 -53 -12 -32 -29 -124 -26 -166 4 -49 35 -84 102 -90 172
-6 66 -23 82 -23 21z m1038 -837 c20 -14 22 -23 22 -120 0 -96 -1 -104 -19
-104 -11 0 -23 4 -26 10 -4 6 -13 5 -25 -3 -39 -24 -70 21 -56 79 4 13 22 34
41 47 35 22 47 57 20 57 -8 0 -15 -7 -15 -15 0 -9 -9 -15 -25 -15 -28 0 -34
25 -12 52 23 30 62 35 95 12z"/>
<path d="M12483 3559 c-16 -16 -17 -45 -3 -54 13 -8 23 17 18 45 -2 17 -5 19
-15 9z"/>
<path d="M11940 4450 c-18 -12 -2 -12 25 0 13 6 15 9 5 9 -8 0 -22 -4 -30 -9z"/>
<path d="M5535 4344 c-22 -9 -71 -17 -110 -20 -133 -9 -199 -40 -262 -122 -59
-78 -64 -115 -61 -446 l3 -295 35 -36 c19 -19 51 -40 72 -45 23 -7 230 -9 557
-8 507 3 520 4 547 24 15 11 37 33 48 48 20 26 21 40 21 339 0 312 0 312 -25
362 -32 66 -110 140 -168 160 -26 8 -81 18 -122 21 -41 3 -97 13 -123 21 -27
8 -50 13 -53 11 -4 -5 -23 -114 -50 -291 -10 -64 -21 -112 -25 -105 -3 7 -14
53 -23 102 -11 65 -13 93 -5 102 8 10 5 21 -11 44 -12 16 -25 30 -29 30 -4 0
-18 -14 -30 -31 -18 -24 -20 -33 -11 -39 11 -7 10 -29 -6 -114 -10 -58 -21
-106 -24 -106 -3 0 -14 46 -23 103 -10 56 -27 146 -38 201 -10 54 -19 100 -19
102 0 7 -25 3 -65 -12z m102 -266 c-3 -8 -6 -5 -6 6 -1 11 2 17 5 13 3 -3 4
-12 1 -19z m13 -83 c0 -5 -5 -3 -10 5 -5 8 -10 20 -10 25 0 6 5 3 10 -5 5 -8
10 -19 10 -25z"/>
<path d="M11868 4353 c7 -3 16 -2 19 1 4 3 -2 6 -13 5 -11 0 -14 -3 -6 -6z"/>
<path d="M11923 4313 c9 -2 23 -2 30 0 6 3 -1 5 -18 5 -16 0 -22 -2 -12 -5z"/>
<path d="M3360 4228 c0 -18 -4 -38 -8 -44 -4 -6 -47 -25 -97 -43 -130 -46
-156 -61 -189 -109 -25 -35 -30 -53 -31 -100 0 -48 7 -71 48 -152 50 -100 63
-162 69 -327 l3 -73 248 0 c232 0 248 1 243 18 -2 9 -7 37 -11 62 -17 119 -67
380 -82 425 -9 28 -29 79 -46 115 -16 36 -32 82 -34 102 -5 34 -3 39 26 55 35
20 52 60 30 73 -7 5 -36 11 -64 15 -27 3 -62 8 -77 11 -26 5 -28 3 -28 -28z
m176 -542 c16 -12 19 -29 22 -120 l4 -106 -68 3 c-64 2 -68 3 -77 30 -13 39 7
82 49 108 35 21 46 49 19 49 -8 0 -15 -8 -15 -18 0 -15 -6 -18 -30 -14 -26 4
-29 7 -24 31 4 14 13 32 22 39 21 16 74 15 98 -2z"/>
<path d="M3482 3548 c-17 -17 -15 -38 3 -38 9 0 15 9 15 25 0 29 -1 30 -18 13z"/>
<path d="M4067 4247 l-68 -10 3 -36 c2 -26 8 -37 22 -39 39 -8 60 -47 31 -58
-8 -4 -15 -10 -15 -16 0 -5 4 -6 10 -3 12 8 1 -23 -29 -81 -16 -31 -27 -41
-40 -37 -10 2 -34 -5 -55 -16 -43 -24 -47 -25 -43 -9 2 13 97 49 109 42 4 -3
5 2 2 10 -4 10 -1 16 7 16 14 0 43 50 34 58 -2 3 -10 -7 -16 -22 -18 -38 -108
-79 -185 -84 l-62 -4 -1 -144 c-2 -175 17 -201 22 -31 l3 112 2 -112 c1 -71 6
-113 13 -113 7 0 9 44 7 130 -2 72 0 130 5 130 4 0 7 -58 7 -130 l0 -130 44 0
c43 0 44 1 48 38 3 20 4 72 3 114 -1 44 2 75 7 72 5 -3 6 -27 3 -52 l-6 -47
15 33 c17 36 16 55 -1 88 -10 17 -8 22 9 33 26 16 37 5 12 -13 -15 -12 -17
-17 -6 -27 10 -11 12 -10 12 4 0 9 4 17 9 17 5 0 2 -22 -6 -50 -8 -27 -31
-151 -52 -275 l-38 -225 247 0 248 0 6 63 c3 34 9 95 12 135 4 39 11 72 16 72
5 0 8 10 7 23 -1 12 3 35 9 50 7 16 12 32 12 36 0 5 7 15 16 22 15 12 16 11
10 -9 -4 -13 -3 -22 3 -22 6 0 8 -7 4 -16 -4 -12 -8 -13 -14 -3 -5 9 -11 5
-20 -14 -11 -23 -10 -36 4 -75 10 -26 16 -60 16 -77 -2 -27 -2 -27 -6 -5 -6
36 -24 80 -33 80 -8 0 -18 -92 -12 -110 2 -6 10 -10 18 -10 8 0 14 -4 14 -10
0 -5 -7 -6 -17 -3 -11 5 -14 3 -8 -6 4 -7 3 -16 -2 -20 -6 -3 -13 -18 -16 -33
-7 -25 -5 -26 42 -30 47 -3 49 -2 45 22 -3 14 -7 31 -9 38 -2 6 0 12 5 12 6 0
10 10 9 23 0 18 -2 19 -7 4 -4 -9 -7 12 -7 47 0 35 3 59 7 53 3 -5 8 1 10 14
2 13 4 -23 5 -81 0 -58 3 -116 4 -130 4 -24 1 -25 -56 -31 l-60 -6 60 -1 c70
-2 79 3 82 43 1 17 5 53 9 82 6 52 -6 250 -14 203 -5 -34 -22 -50 -22 -22 0
12 -5 22 -11 22 -7 0 -9 10 -5 24 3 14 1 36 -5 50 -9 20 -9 29 1 41 18 21 24
127 10 169 -18 56 -74 97 -190 140 -58 21 -111 43 -117 48 -7 6 -13 26 -13 44
0 38 5 37 -103 21z m-234 -304 c-23 -3 -33 -10 -35 -26 -3 -20 -4 -19 -9 6 -6
26 -5 27 35 25 36 -1 37 -2 9 -5z m645 -253 c14 0 15 -2 2 -9 -18 -12 -30 -5
-29 17 0 11 3 12 6 5 2 -7 12 -13 21 -13z m42 -221 c-9 -21 -10 -19 -5 16 2
22 6 69 7 105 2 63 2 63 5 -16 2 -44 -1 -91 -7 -105z"/>
<path d="M10030 4158 c-18 -48 -36 -75 -84 -121 -33 -32 -82 -73 -108 -89 -47
-30 -54 -48 -19 -48 26 0 113 58 174 117 53 51 54 53 61 124 3 39 5 74 3 76
-2 2 -14 -25 -27 -59z"/>
<path d="M9550 4096 c0 -2 8 -10 18 -17 15 -13 16 -12 3 4 -13 16 -21 21 -21
13z"/>
<path d="M10012 3918 c-7 -7 -12 -18 -12 -25 0 -7 -9 -17 -20 -23 -13 -7 -17
-16 -13 -28 6 -15 5 -15 -11 -3 -15 12 -19 12 -32 -7 -8 -12 -21 -22 -28 -22
-13 0 -56 -33 -56 -42 0 -3 16 -5 36 -4 28 1 39 7 45 23 4 11 12 24 18 28 16
9 14 -2 -5 -30 -15 -23 -15 -25 -1 -25 9 0 24 17 34 38 9 20 19 39 22 42 10 8
42 82 38 86 -2 2 -9 -2 -15 -8z"/>
<path d="M4491 3798 c1 -13 5 -36 9 -53 6 -23 8 -25 9 -8 0 12 4 30 7 40 5 15
4 16 -6 3 -9 -12 -10 -10 -6 13 4 15 2 27 -4 27 -5 0 -9 -10 -9 -22z"/>
<path d="M9870 3746 c0 -9 30 -14 35 -6 4 6 -3 10 -14 10 -12 0 -21 -2 -21 -4z"/>
<path d="M10330 3666 c0 -2 7 -7 16 -10 8 -3 12 -2 9 4 -6 10 -25 14 -25 6z"/>
<path d="M11546 2550 c3 -36 12 -89 20 -119 9 -29 13 -55 10 -58 -3 -3 -33 21
-67 53 l-62 59 8 -50 c3 -27 16 -75 27 -105 11 -30 19 -66 17 -80 -10 -101 4
-364 22 -410 15 -38 56 -63 112 -68 61 -6 108 16 137 65 26 44 44 42 69 -5 32
-60 150 -84 205 -41 14 11 26 17 27 12 6 -46 -25 -184 -53 -233 -22 -39 -80
-90 -85 -75 -18 54 -41 81 -76 89 -55 14 -115 -9 -136 -51 -9 -18 -21 -33 -27
-33 -7 0 -36 27 -67 59 -46 50 -57 70 -72 128 -31 123 -33 124 -34 17 -1 -114
1 -119 118 -271 93 -122 96 -124 185 -125 61 -1 80 3 97 18 33 30 129 172 157
232 23 51 24 61 17 146 -9 107 -9 104 6 226 11 84 12 131 10 323 -1 86 -20
101 -180 141 -115 28 -139 44 -175 115 l-23 44 -12 -62 c-8 -40 -17 -61 -26
-61 -12 0 -80 79 -137 160 -18 25 -18 24 -12 -40z m274 -404 c52 0 120 4 150
8 44 7 58 5 68 -6 16 -20 30 -96 33 -181 l2 -68 -273 -5 -273 -5 6 88 c8 105
22 159 45 173 11 7 40 8 82 3 36 -4 108 -7 160 -7z m-50 -273 c0 -5 -9 -22
-20 -40 -36 -59 -139 -69 -194 -18 -14 13 -26 33 -26 45 0 19 6 20 120 20 66
0 120 -3 120 -7z m310 -7 c0 -26 -41 -66 -81 -77 -52 -16 -110 1 -138 40 -12
16 -21 34 -21 40 0 7 40 11 120 11 95 0 120 -3 120 -14z m-187 -335 c8 -8 9
-16 1 -29 -17 -26 -147 -25 -152 1 -7 36 17 48 81 43 33 -2 64 -9 70 -15z"/>
<path d="M7803 2522 c3 -4 7 -63 8 -131 l4 -124 -58 -12 c-53 -11 -98 -37 -86
-50 3 -3 30 -1 59 5 92 17 85 41 82 -305 l-3 -306 28 7 c67 15 143 68 143 100
0 8 4 14 8 14 12 0 31 96 29 139 -3 58 18 45 53 -30 29 -63 33 -82 32 -148 -1
-49 -8 -96 -21 -131 -14 -37 -16 -49 -6 -36 14 19 15 19 15 -6 0 -25 -15 -116
-26 -153 l-6 -20 15 20 c8 11 31 37 50 58 19 22 49 67 66 102 28 56 31 72 31
152 0 143 -45 364 -71 348 -5 -4 -6 1 -3 9 4 10 -15 37 -51 76 l-58 60 -48 -6
c-42 -5 -49 -3 -62 18 -20 29 -8 103 19 123 18 14 17 14 -8 15 -37 0 -41 12
-21 54 14 31 22 36 50 36 23 0 33 5 33 16 0 8 -4 12 -10 9 -5 -3 -10 0 -10 8
0 7 -12 24 -27 38 -14 13 -22 17 -18 9 5 -8 -4 -3 -18 11 -15 15 -41 29 -58
33 -42 8 -61 8 -56 -2z m163 -92 c0 -12 -4 -16 -9 -11 -5 5 -6 14 -3 20 10 15
12 14 12 -9z m-96 -224 c0 -3 -4 -8 -10 -11 -5 -3 -10 -1 -10 4 0 6 5 11 10
11 6 0 10 -2 10 -4z m174 -75 c3 -5 -1 -11 -9 -14 -9 -4 -12 -1 -8 9 6 16 10
17 17 5z m41 -41 c26 -28 15 -31 -12 -3 -12 13 -19 23 -14 23 4 0 16 -9 26
-20z"/>
<path d="M7976 2324 c-5 -14 -4 -15 9 -4 17 14 19 20 6 20 -5 0 -12 -7 -15
-16z"/>
<path d="M9948 2303 c7 -3 16 -2 19 1 4 3 -2 6 -13 5 -11 0 -14 -3 -6 -6z"/>
<path d="M9988 2293 c7 -3 16 -2 19 1 4 3 -2 6 -13 5 -11 0 -14 -3 -6 -6z"/>
<path d="M10088 2283 c-12 -12 -20 -13 -36 -4 -11 6 -24 11 -29 11 -4 -1 5 -8
20 -16 15 -8 25 -19 22 -23 -3 -5 3 -26 12 -47 9 -22 16 -45 14 -53 -1 -7 2
-11 7 -7 12 7 55 -93 49 -116 -3 -10 -2 -16 3 -13 7 4 19 -52 23 -112 1 -11 5
-19 10 -16 4 2 7 -1 7 -6 0 -6 7 -11 16 -11 14 0 14 2 -1 16 -10 10 -14 25
-11 38 24 87 48 228 42 249 -7 31 -63 90 -105 111 -25 13 -30 13 -43 -1z"/>
<path d="M9545 2271 c-53 -31 -85 -78 -85 -121 0 -51 40 -240 51 -240 4 0 11
17 14 38 15 91 30 141 62 199 59 110 38 173 -42 124z"/>
<path d="M10000 2270 c0 -5 5 -10 11 -10 5 0 7 5 4 10 -3 6 -8 10 -11 10 -2 0
-4 -4 -4 -10z"/>
<path d="M7980 2240 c-6 -12 -9 -24 -7 -27 3 -2 11 5 17 17 6 12 9 24 7 27 -3
2 -11 -5 -17 -17z"/>
<path d="M9865 1855 c0 -220 1 -309 2 -197 2 112 2 292 0 400 -1 108 -2 17 -2
-203z"/>
<path d="M3669 2197 c-16 -35 -45 -44 -70 -21 -10 9 -21 15 -23 13 -12 -14
-26 -51 -26 -68 0 -12 -7 -21 -15 -21 -8 0 -15 5 -15 10 0 20 -28 9 -34 -12
-3 -13 -5 -93 -4 -178 0 -85 4 -136 7 -112 6 41 7 42 21 23 8 -12 21 -21 30
-21 12 -1 12 -3 -3 -11 -9 -5 -22 -7 -27 -4 -6 3 -10 -1 -10 -9 0 -20 42 -21
70 -3 16 9 22 9 28 0 4 -6 34 -13 67 -15 33 -1 63 -7 67 -12 11 -16 65 -16
108 -1 25 9 78 15 131 15 75 0 88 -3 92 -17 5 -15 9 185 7 307 0 44 -17 61
-34 38 -17 -23 -26 -13 -26 29 0 33 -16 43 -36 23 -15 -15 -39 -3 -52 26 -12
25 -36 32 -47 14 -11 -17 -50 -11 -69 12 -16 18 -20 19 -30 7 -21 -28 -48 -31
-72 -8 l-23 22 -12 -26z m101 -164 c0 -5 -24 -9 -53 -10 -36 -1 -46 2 -32 7
25 11 85 12 85 3z m-113 -19 c-3 -3 -12 -4 -19 -1 -8 3 -5 6 6 6 11 1 17 -2
13 -5z m110 -186 c-2 -35 -3 -7 -3 62 0 69 1 97 3 63 2 -35 2 -91 0 -125z
m-187 142 c-21 -17 -23 -21 -10 -31 12 -8 11 -9 -6 -4 -14 3 -28 -1 -38 -10
-9 -9 -16 -13 -16 -8 0 12 69 73 83 73 7 0 1 -9 -13 -20z m-60 -115 c0 -5 -5
-3 -10 5 -5 8 -10 20 -10 25 0 6 5 3 10 -5 5 -8 10 -19 10 -25z m128 -35 c22
0 32 -5 32 -15 0 -11 -11 -15 -40 -15 -28 0 -40 4 -40 14 0 8 -6 16 -12 19 -7
2 -4 3 7 1 11 -2 35 -4 53 -4z"/>
<path d="M5660 2210 c-151 -5 -165 -7 -168 -24 -2 -10 2 -22 10 -27 7 -5 151
-9 319 -9 264 0 308 2 313 15 8 22 -3 45 -23 46 -117 3 -319 3 -451 -1z"/>
<path d="M1563 2130 c-22 -5 -59 -18 -80 -29 -43 -22 -109 -89 -123 -125 -13
-34 -22 -302 -13 -361 6 -34 13 -50 23 -50 12 0 16 19 20 88 4 77 8 91 28 107
22 18 24 18 80 -2 82 -29 207 -35 316 -13 86 17 90 17 103 -1 7 -10 13 -41 13
-70 0 -70 10 -114 25 -114 16 0 30 165 22 247 -6 54 -5 55 18 51 20 -4 25 0
30 23 4 16 13 29 21 29 33 0 -4 69 -64 117 -112 91 -276 131 -419 103z"/>
<path d="M5770 1971 c-88 -6 -100 -9 -171 -48 -42 -24 -83 -43 -92 -43 -10 0
-19 -16 -26 -50 -15 -70 -14 -80 9 -80 16 0 20 7 20 38 0 20 4 42 8 47 4 6 56
30 116 54 l110 42 135 -9 c107 -7 146 -13 182 -31 l47 -22 -3 -53 c-4 -58 1
-70 28 -72 20 -2 22 26 6 92 -11 43 -14 46 -108 94 -68 35 -106 49 -131 48
-19 -1 -78 -4 -130 -7z"/>
<path d="M10220 1901 c0 -6 4 -11 9 -11 5 0 9 -18 9 -41 1 -23 3 -44 6 -47 3
-3 6 15 6 40 0 28 -6 50 -15 58 -10 9 -15 9 -15 1z"/>
<path d="M7394 1685 c2 -79 7 -109 24 -145 22 -44 122 -179 122 -163 -1 7 -21
100 -35 156 -2 10 -15 31 -28 47 -33 38 -66 108 -77 161 -7 36 -9 25 -6 -56z"/>
<path d="M3530 1753 c-22 -9 -30 -24 -30 -60 0 -45 9 -62 41 -78 37 -20 119
-19 146 0 24 17 47 83 37 108 -10 27 -146 48 -194 30z"/>
<path d="M3861 1750 c-34 -8 -51 -24 -51 -48 0 -26 29 -81 48 -91 42 -23 155
-8 174 22 4 7 8 33 8 59 0 37 -4 50 -19 58 -23 12 -110 12 -160 0z"/>
<path d="M4071 1721 c-8 -5 -16 -26 -18 -48 -4 -49 -37 -78 -96 -87 -85 -13
-126 9 -153 80 -17 46 -33 54 -54 29 -10 -12 -10 -15 4 -15 9 0 16 -5 16 -11
0 -5 -4 -7 -10 -4 -5 3 -10 -1 -10 -9 0 -9 5 -16 11 -16 5 0 7 -5 3 -11 -5 -8
-10 -6 -16 6 -9 15 -12 14 -27 -10 -20 -34 -86 -59 -114 -43 -14 7 -17 7 -13
-1 4 -6 6 -11 3 -11 -11 0 -106 51 -112 60 -3 6 -11 8 -16 4 -6 -4 -6 -11 2
-20 6 -8 9 -17 5 -21 -3 -4 -12 2 -20 12 -9 12 -15 15 -20 7 -11 -18 1 -29 34
-34 26 -4 29 -2 24 14 -4 13 -1 16 10 12 8 -3 12 -12 9 -20 -3 -8 0 -14 7 -14
6 0 8 5 5 10 -10 17 11 11 36 -10 14 -11 18 -19 11 -20 -7 0 -11 -4 -7 -9 3
-5 1 -12 -5 -16 -5 -3 -10 -1 -10 4 0 6 -5 11 -11 11 -7 0 -9 -10 -5 -27 l6
-28 -15 25 c-19 33 -19 13 0 -24 12 -22 14 -47 10 -95 -3 -36 -8 -100 -11
-141 -6 -72 -5 -78 20 -107 82 -97 283 -119 398 -43 69 46 81 81 72 214 -6
105 -5 115 21 189 15 42 32 77 36 77 5 0 9 7 9 15 0 18 16 20 23 3 8 -19 25 9
32 54 11 61 -22 95 -64 69z m-303 -276 c-2 -150 -3 -152 -5 -40 -3 80 -8 122
-16 127 -9 6 -9 8 1 8 6 0 12 5 12 11 0 6 -7 8 -17 5 -15 -6 -15 -4 2 14 21
23 2 28 -21 5 -9 -8 -30 -15 -47 -15 -24 0 -28 3 -17 10 8 5 23 10 32 10 21 0
50 29 42 42 -3 5 3 4 15 -4 20 -12 21 -20 19 -173z m-139 106 c10 -7 7 -9 -12
-8 -14 1 -23 5 -20 10 6 9 15 9 32 -2z m86 -11 c-3 -5 -10 -10 -16 -10 -5 0
-9 5 -9 10 0 6 7 10 16 10 8 0 12 -4 9 -10z m-135 -39 c0 -6 -4 -13 -10 -16
-5 -3 -10 -18 -9 -33 0 -25 2 -24 20 13 11 22 16 29 13 15 -4 -14 -8 -44 -8
-67 0 -24 -3 -43 -7 -43 -12 0 -31 89 -25 115 6 24 26 36 26 16z m24 -157 c3
-8 2 -12 -4 -9 -6 3 -10 10 -10 16 0 14 7 11 14 -7z m45 -30 c-11 -14 -11 -18
5 -29 10 -8 24 -11 32 -8 8 3 14 0 14 -6 0 -15 57 -14 63 2 3 6 6 1 6 -11 1
-22 -1 -23 -41 -17 -51 9 -67 16 -92 44 -19 21 -19 22 0 35 24 18 31 12 13
-10z"/>
<path d="M3417 1713 c-4 -3 -6 -25 -6 -47 1 -39 2 -40 9 -11 7 29 8 29 9 4 1
-33 31 -35 31 -3 0 13 5 26 10 29 6 3 10 13 10 22 0 11 -5 9 -21 -8 -11 -13
-17 -18 -13 -10 5 11 3 13 -9 8 -10 -3 -17 -4 -17 -1 0 2 10 9 23 14 21 8 21
9 1 9 -11 1 -24 -2 -27 -6z"/>
<path d="M3470 1660 c0 -5 5 -10 10 -10 6 0 10 5 10 10 0 6 -4 10 -10 10 -5 0
-10 -4 -10 -10z"/>
<path d="M10172 1625 c0 -16 2 -22 5 -12 2 9 2 23 0 30 -3 6 -5 -1 -5 -18z"/>
<path d="M5464 1528 c8 -92 42 -268 54 -280 19 -19 41 5 47 54 l7 50 40 -63
c22 -35 47 -70 56 -76 9 -8 45 -13 84 -13 l68 0 0 -61 0 -62 44 6 c62 9 128
43 154 81 26 38 27 46 7 46 -8 0 -15 7 -15 15 0 17 27 75 35 75 9 0 0 -24 -12
-38 -7 -7 -13 -19 -13 -27 0 -14 30 -29 39 -19 3 4 0 9 -6 11 -27 10 -11 24
24 21 l37 -3 17 85 c10 47 21 130 25 184 7 92 6 99 -10 93 -10 -4 -26 -7 -36
-7 -14 0 -21 -13 -30 -52 -15 -63 -27 -89 -51 -106 -9 -6 -20 -25 -24 -41 -3
-16 -13 -35 -22 -42 -13 -11 -18 -10 -32 8 -55 68 -184 71 -237 7 -28 -34 -60
-25 -79 21 -8 17 -25 39 -38 48 -18 11 -27 29 -31 62 -8 52 -38 90 -80 100
l-29 6 7 -83z m494 -345 c-10 -2 -28 -2 -40 0 -13 2 -5 4 17 4 22 1 32 -1 23
-4z m52 -3 c0 -5 -5 -10 -11 -10 -5 0 -7 5 -4 10 3 6 8 10 11 10 2 0 4 -4 4
-10z m-143 -16 c-3 -3 -12 -4 -19 -1 -8 3 -5 6 6 6 11 1 17 -2 13 -5z m-30
-36 c-3 -8 -6 -5 -6 6 -1 11 2 17 5 13 3 -3 4 -12 1 -19z"/>
<path d="M3530 1560 c0 -5 7 -10 15 -10 8 0 15 5 15 10 0 6 -7 10 -15 10 -8 0
-15 -4 -15 -10z"/>
<path d="M3500 1549 c0 -5 5 -7 10 -4 6 3 10 8 10 11 0 2 -4 4 -10 4 -5 0 -10
-5 -10 -11z"/>
<path d="M10087 1500 c3 -11 9 -20 15 -20 5 0 4 9 -2 20 -6 11 -12 20 -14 20
-2 0 -2 -9 1 -20z"/>
<path d="M10116 1486 c6 -26 5 -29 -15 -23 -17 4 -20 3 -12 -7 22 -27 -123
-103 -208 -109 -25 -2 -26 -4 -29 -80 -1 -42 1 -77 5 -77 5 0 32 17 60 38 28
20 89 65 135 99 l85 61 -5 54 c-2 29 -9 58 -14 63 -6 6 -7 -1 -2 -19z"/>
<path d="M1931 1363 c-13 -68 -49 -136 -74 -141 -10 -2 -37 13 -62 37 -48 44
-105 64 -156 55 -45 -9 -60 -17 -114 -64 -52 -45 -67 -48 -94 -21 -19 19 -31
55 -47 136 l-7 40 -13 -60 c-7 -33 -13 -88 -14 -121 l0 -61 -62 -18 c-285 -79
-431 -290 -445 -642 l-6 -133 822 0 821 0 6 27 c4 15 2 86 -5 159 -13 146 -46
278 -89 358 -61 112 -182 195 -336 232 l-76 18 0 47 c0 44 -25 197 -33 206 -3
2 -9 -22 -16 -54z m-358 -390 c52 -6 51 -6 36 -34 -8 -16 -7 -23 6 -32 14 -11
15 -18 0 -82 -27 -117 -26 -116 -46 -60 -9 28 -31 88 -48 135 -17 47 -31 87
-31 89 0 2 8 0 18 -4 9 -3 38 -9 65 -12z m267 12 c0 -15 -82 -256 -86 -252 -2
2 -15 39 -28 83 -21 72 -22 80 -7 91 14 10 14 15 3 33 -7 12 -12 23 -10 24 3
3 97 23 116 25 6 0 12 -1 12 -4z"/>
<path d="M9861 1404 c0 -11 3 -14 6 -6 3 7 2 16 -1 19 -3 4 -6 -2 -5 -13z"/>
<path d="M9860 1370 c0 -5 5 -10 11 -10 5 0 7 5 4 10 -3 6 -8 10 -11 10 -2 0
-4 -4 -4 -10z"/>
<path d="M10146 1362 c5 -17 -119 -223 -153 -254 -17 -16 -22 -14 -76 27 l-59
44 -51 -40 c-29 -21 -59 -38 -66 -37 -21 4 -203 239 -197 255 8 19 -16 16
-124 -12 -310 -83 -475 -266 -521 -576 -12 -81 -7 -296 7 -346 l6 -23 943 0
942 0 7 49 c10 78 8 310 -3 381 -24 148 -81 276 -158 355 -78 78 -280 162
-460 189 -36 5 -41 4 -37 -12z m-608 -289 c8 -11 12 -52 12 -115 0 -91 -1 -98
-20 -98 -11 0 -20 5 -20 10 0 6 -7 10 -15 10 -8 0 -15 -5 -15 -11 0 -22 -45
-4 -54 22 -14 40 1 78 39 101 36 20 48 58 20 58 -8 0 -15 -7 -15 -15 0 -9 -9
-15 -25 -15 -32 0 -34 31 -4 61 24 24 75 20 97 -8z"/>
<path d="M9480 955 c-14 -17 -10 -47 8 -53 8 -2 12 8 12 32 0 40 -2 42 -20 21z"/>
<path d="M11895 1257 c-33 -24 -70 -46 -83 -49 -30 -8 -140 41 -121 53 10 6
10 9 2 9 -22 0 -37 -44 -39 -112 -1 -53 2 -70 16 -83 17 -15 21 -15 61 6 34
17 54 20 100 16 49 -4 135 -36 102 -37 -18 0 -16 -30 2 -30 8 0 15 7 15 15 0
8 7 15 15 15 8 0 15 -7 15 -15 0 -8 9 -15 20 -15 11 0 20 7 20 15 0 8 -7 15
-15 15 -19 0 -19 26 0 34 12 4 13 10 3 31 -9 21 -9 28 1 34 10 7 10 13 -1 31
-10 18 -10 24 0 27 20 7 14 26 -17 56 -16 15 -31 27 -33 27 -2 0 -31 -19 -63
-43z"/>
<path d="M11440 810 l0 -460 40 0 c35 0 40 3 40 23 1 12 1 80 1 150 0 97 3
126 12 120 9 -5 9 -3 1 8 -16 20 -17 121 -1 131 9 6 9 8 0 8 -9 0 -13 19 -13
60 0 41 4 60 13 60 8 0 9 2 1 8 -8 5 -12 61 -12 167 -1 88 -2 166 -2 173 0 7
-15 12 -40 12 l-40 0 0 -460z"/>
<path d="M11630 1251 c-5 -11 -7 -22 -2 -25 4 -2 12 7 19 20 13 28 -2 33 -17
5z"/>
<path d="M12104 810 l1 -460 47 0 c38 0 46 3 42 15 -4 10 0 15 15 15 12 0 21
6 21 15 0 8 -9 15 -20 15 -11 0 -20 6 -20 14 0 7 9 16 20 19 11 3 20 12 20 20
0 8 -9 17 -20 20 -23 6 -27 27 -5 27 8 0 15 9 15 20 0 11 -7 20 -15 20 -22 0
-18 21 5 27 26 7 26 19 -1 26 -23 6 -21 32 2 32 8 0 14 7 14 15 0 8 -6 15 -14
15 -23 0 -25 26 -2 32 28 7 28 43 1 43 -11 0 -20 5 -20 11 0 6 9 13 20 16 11
3 20 11 20 18 0 7 -9 15 -20 18 -26 7 -26 23 1 30 24 7 20 33 -5 29 -24 -4
-20 25 5 31 22 6 22 32 -1 32 -21 0 -24 26 -3 31 26 7 28 44 2 44 -25 0 -25
20 1 27 11 3 20 12 20 19 0 8 -9 14 -20 14 -11 0 -20 7 -20 15 0 9 9 15 21 15
14 0 19 5 17 18 -2 9 -10 17 -18 17 -24 0 -23 32 1 38 22 6 18 27 -7 27 -8 0
-14 7 -14 15 0 9 9 15 21 15 15 0 19 5 15 15 -3 8 0 16 7 16 23 2 -48 17 -89
18 l-40 1 0 -460z"/>
<path d="M12050 1240 c0 -13 7 -20 20 -20 13 0 20 7 20 20 0 13 -7 20 -20 20
-13 0 -20 -7 -20 -20z"/>
<path d="M11752 1236 c7 -8 15 -12 17 -11 5 6 -10 25 -20 25 -5 0 -4 -6 3 -14z"/>
<path d="M12263 1235 c0 -8 6 -15 13 -15 20 0 26 17 8 24 -21 8 -21 8 -21 -9z"/>
<path d="M4070 1198 c0 -13 -12 -48 -26 -76 -41 -82 -118 -113 -279 -113 -78
0 -106 5 -156 25 l-62 25 6 -87 c11 -195 136 -412 236 -412 38 0 67 24 101 83
16 29 30 47 30 41 0 -18 -57 -101 -81 -118 -51 -35 -119 -9 -176 66 -33 44
-78 133 -93 186 -11 33 -18 42 -36 42 -12 0 -24 6 -27 13 -4 9 -7 9 -18 0 -10
-11 -10 -19 4 -48 9 -20 17 -44 17 -55 0 -11 8 -24 18 -29 10 -6 30 -33 43
-61 16 -33 32 -53 47 -57 12 -3 39 -24 60 -48 34 -38 42 -43 94 -47 58 -5 58
-4 97 39 22 24 47 43 56 43 9 0 23 18 34 43 10 24 31 56 45 72 15 16 24 35 22
42 -7 16 21 95 36 105 7 4 13 32 14 63 1 30 6 61 11 68 14 20 10 209 -4 214
-8 3 -13 -5 -13 -19z m-63 -185 c-3 -10 -5 -4 -5 12 0 17 2 24 5 18 2 -7 2
-21 0 -30z m-10 -55 c-3 -7 -5 -2 -5 12 0 14 2 19 5 13 2 -7 2 -19 0 -25z
m-28 -128 c-12 -44 -23 -79 -25 -77 -2 2 7 44 19 94 12 51 23 85 25 78 2 -8
-7 -50 -19 -95z m-38 -117 c-12 -20 -14 -14 -5 12 4 9 9 14 11 11 3 -2 0 -13
-6 -23z"/>
<path d="M3449 1198 c-1 -7 -2 -35 -3 -61 -2 -47 -1 -48 24 -42 14 4 26 7 27
8 0 1 -6 26 -15 54 -16 50 -30 68 -33 41z"/>
<path d="M3350 1181 c-107 -34 -173 -74 -245 -146 -121 -121 -167 -251 -167
-475 0 -74 5 -147 11 -162 l11 -28 814 0 814 0 5 22 c14 61 18 221 7 312 -27
224 -103 353 -255 429 -46 23 -175 67 -196 67 -13 0 -11 -44 2 -57 7 -7 9 -30
5 -60 -3 -26 -8 -72 -11 -102 -3 -29 -12 -65 -19 -80 -8 -14 -21 -62 -29 -106
-31 -166 -96 -275 -191 -324 -39 -20 -64 -25 -120 -25 -117 0 -218 60 -280
167 -31 52 -76 178 -83 232 -3 22 -12 45 -21 51 -11 8 -15 30 -16 75 -1 35 -5
69 -9 76 -10 16 2 94 18 113 36 45 33 46 -45 21z"/>
<path d="M12052 1173 c4 -24 38 -26 38 -2 0 13 -7 19 -21 19 -14 0 -19 -5 -17
-17z"/>
<path d="M12262 1174 c4 -21 22 -23 26 -1 2 10 -3 17 -13 17 -10 0 -15 -6 -13
-16z"/>
<path d="M12333 1183 c-24 -9 -14 -30 12 -25 14 2 25 11 25 18 0 14 -14 17
-37 7z"/>
<path d="M3398 1105 c-4 -17 -1 -25 8 -25 8 0 14 9 14 19 0 30 -17 34 -22 6z"/>
<path d="M6420 1122 c0 -12 19 -26 26 -19 2 2 -2 10 -11 17 -9 8 -15 8 -15 2z"/>
<path d="M12050 1110 c0 -13 7 -20 20 -20 13 0 20 7 20 20 0 13 -7 20 -20 20
-13 0 -20 -7 -20 -20z"/>
<path d="M12267 1123 c-13 -12 -7 -33 8 -33 8 0 15 9 15 20 0 20 -11 26 -23
13z"/>
<path d="M12325 1120 c-9 -15 4 -30 26 -30 12 0 19 7 19 20 0 21 -33 29 -45
10z"/>
<path d="M12400 1115 c0 -17 10 -24 25 -18 8 2 12 10 9 17 -6 16 -34 17 -34 1z"/>
<path d="M6033 1050 c-1 -11 2 -18 8 -15 11 7 12 35 1 35 -4 0 -8 -9 -9 -20z"/>
<path d="M11811 1044 c0 -11 3 -14 6 -6 3 7 2 16 -1 19 -3 4 -6 -2 -5 -13z"/>
<path d="M11850 1045 c0 -8 9 -15 20 -15 11 0 20 7 20 15 0 8 -9 15 -20 15
-11 0 -20 -7 -20 -15z"/>
<path d="M12050 1047 c0 -19 10 -27 26 -20 21 8 17 33 -6 33 -11 0 -20 -6 -20
-13z"/>
<path d="M12260 1045 c0 -8 7 -15 15 -15 8 0 15 7 15 15 0 8 -7 15 -15 15 -8
0 -15 -7 -15 -15z"/>
<path d="M12320 1045 c0 -9 9 -15 25 -15 16 0 25 6 25 15 0 9 -9 15 -25 15
-16 0 -25 -6 -25 -15z"/>
<path d="M12400 1045 c0 -8 2 -15 4 -15 2 0 6 7 10 15 3 8 1 15 -4 15 -6 0
-10 -7 -10 -15z"/>
<path d="M3470 1035 c0 -8 -7 -15 -15 -15 -17 0 -20 -16 -4 -25 12 -8 49 23
49 42 0 7 -7 13 -15 13 -8 0 -15 -7 -15 -15z"/>
<path d="M6016 1005 c-3 -9 -6 -24 -5 -33 0 -9 5 -4 10 12 9 32 6 48 -5 21z"/>
<path d="M6420 995 c-9 -10 -9 -15 -1 -15 6 0 11 4 11 9 0 5 8 12 18 14 14 4
14 5 1 6 -9 0 -22 -6 -29 -14z"/>
<path d="M11850 980 c0 -13 7 -20 18 -20 11 0 18 8 19 20 1 14 -4 20 -18 20
-12 0 -19 -7 -19 -20z"/>
<path d="M11916 985 c-3 -9 1 -18 10 -22 19 -7 28 2 21 22 -8 19 -23 19 -31 0z"/>
<path d="M11980 980 c0 -13 7 -20 20 -20 13 0 20 7 20 20 0 13 -7 20 -20 20
-13 0 -20 -7 -20 -20z"/>
<path d="M12050 980 c0 -13 7 -20 20 -20 13 0 20 7 20 20 0 13 -7 20 -20 20
-13 0 -20 -7 -20 -20z"/>
<path d="M12260 980 c0 -23 25 -27 33 -6 7 16 -1 26 -20 26 -7 0 -13 -9 -13
-20z"/>
<path d="M12320 980 c0 -15 7 -20 25 -20 18 0 25 5 25 20 0 15 -7 20 -25 20
-18 0 -25 -5 -25 -20z"/>
<path d="M12400 980 c0 -11 4 -20 10 -20 5 0 14 9 20 20 9 17 8 20 -10 20 -13
0 -20 -7 -20 -20z"/>
<path d="M11806 975 c-3 -8 -1 -15 4 -15 6 0 10 7 10 15 0 8 -2 15 -4 15 -2 0
-6 -7 -10 -15z"/>
<path d="M3406 972 c-2 -4 -1 -14 5 -22 7 -12 9 -10 9 8 0 23 -5 28 -14 14z"/>
<path d="M3482 958 c-17 -17 -15 -48 3 -48 10 0 15 10 15 30 0 34 -1 35 -18
18z"/>
<path d="M4096 961 c-4 -7 -5 -15 -2 -18 9 -9 19 4 14 18 -4 11 -6 11 -12 0z"/>
<path d="M7550 953 c-36 -19 -171 -79 -198 -88 -13 -3 -45 -1 -73 5 -60 15
-91 8 -129 -29 -35 -32 -39 -70 -13 -116 14 -25 16 -56 14 -187 l-3 -158 665
0 c522 0 668 3 674 13 4 6 9 86 10 177 2 91 6 177 9 192 10 43 -4 77 -39 99
-28 17 -42 19 -122 13 l-90 -6 -89 46 -89 45 -41 -33 c-52 -43 -98 -66 -130
-66 -27 0 -76 50 -76 78 -1 10 -9 1 -20 -19 -43 -82 -66 -78 -210 29 -22 17
-28 17 -50 5z"/>
<path d="M6360 940 c0 -5 5 -10 10 -10 6 0 10 5 10 10 0 6 -4 10 -10 10 -5 0
-10 -4 -10 -10z"/>
<path d="M6203 933 c15 -2 39 -2 55 0 15 2 2 4 -28 4 -30 0 -43 -2 -27 -4z"/>
<path d="M5871 914 c0 -11 3 -14 6 -6 3 7 2 16 -1 19 -3 4 -6 -2 -5 -13z"/>
<path d="M6128 923 c7 -3 16 -2 19 1 4 3 -2 6 -13 5 -11 0 -14 -3 -6 -6z"/>
<path d="M11855 920 c-7 -11 2 -30 15 -30 4 0 10 6 13 14 6 16 -19 30 -28 16z"/>
<path d="M11925 920 c-7 -12 2 -30 16 -30 12 0 12 27 0 35 -5 3 -12 1 -16 -5z"/>
<path d="M11984 919 c-10 -17 13 -36 27 -22 12 12 4 33 -11 33 -5 0 -12 -5
-16 -11z"/>
<path d="M12055 922 c-12 -13 -3 -32 15 -32 13 0 20 7 20 18 0 17 -23 26 -35
14z"/>
<path d="M12262 913 c5 -25 28 -28 28 -4 0 12 -6 21 -16 21 -9 0 -14 -7 -12
-17z"/>
<path d="M12325 920 c-9 -15 4 -30 26 -30 12 0 19 7 19 20 0 21 -33 29 -45 10z"/>
<path d="M12402 910 c0 -14 2 -19 5 -12 2 6 2 18 0 25 -3 6 -5 1 -5 -13z"/>
<path d="M11805 910 c3 -5 8 -10 11 -10 2 0 4 5 4 10 0 6 -5 10 -11 10 -5 0
-7 -4 -4 -10z"/>
<path d="M6055 900 c-3 -5 -2 -10 4 -10 5 0 13 5 16 10 3 6 2 10 -4 10 -5 0
-13 -4 -16 -10z"/>
<path d="M6036 855 c-11 -8 -15 -15 -10 -15 6 0 19 7 30 15 10 8 15 14 9 14
-5 0 -19 -6 -29 -14z"/>
<path d="M11810 853 c0 -13 5 -23 10 -23 13 0 13 11 0 30 -8 12 -10 11 -10 -7z"/>
<path d="M11853 854 c-7 -19 2 -28 22 -21 19 8 19 23 0 31 -9 3 -18 -1 -22
-10z"/>
<path d="M11920 850 c0 -11 7 -20 15 -20 8 0 15 9 15 20 0 11 -7 20 -15 20 -8
0 -15 -9 -15 -20z"/>
<path d="M11980 850 c0 -14 7 -20 21 -20 15 0 19 4 15 16 -3 9 -6 18 -6 20 0
2 -7 4 -15 4 -8 0 -15 -9 -15 -20z"/>
<path d="M12050 850 c0 -13 7 -20 20 -20 13 0 20 7 20 20 0 13 -7 20 -20 20
-13 0 -20 -7 -20 -20z"/>
<path d="M12266 863 c-12 -12 -6 -33 9 -33 8 0 15 6 15 14 0 17 -14 28 -24 19z"/>
<path d="M12327 850 c-4 -16 0 -20 19 -20 17 0 24 6 24 20 0 13 -7 20 -19 20
-10 0 -21 -9 -24 -20z"/>
<path d="M12407 863 c-4 -3 -7 -12 -7 -20 0 -15 26 -18 34 -4 7 11 -18 33 -27
24z"/>
<path d="M4056 825 c-9 -23 -8 -25 9 -25 17 0 19 9 6 28 -7 11 -10 10 -15 -3z"/>
<path d="M3455 820 c-8 -13 -1 -24 14 -19 6 3 7 10 2 18 -6 10 -10 10 -16 1z"/>
<path d="M12326 793 c-4 -8 -4 -18 -1 -23 7 -12 45 0 45 15 0 19 -38 26 -44 8z"/>
<path d="M11805 791 c-3 -5 -1 -12 5 -16 5 -3 10 1 10 9 0 18 -6 21 -15 7z"/>
<path d="M11850 785 c0 -8 9 -15 20 -15 11 0 20 7 20 15 0 8 -9 15 -20 15 -11
0 -20 -7 -20 -15z"/>
<path d="M11920 785 c0 -8 7 -15 15 -15 8 0 15 7 15 15 0 8 -7 15 -15 15 -8 0
-15 -7 -15 -15z"/>
<path d="M11980 786 c0 -10 9 -16 21 -16 24 0 21 23 -4 28 -10 2 -17 -3 -17
-12z"/>
<path d="M12050 785 c0 -8 9 -15 20 -15 11 0 20 7 20 15 0 8 -9 15 -20 15 -11
0 -20 -7 -20 -15z"/>
<path d="M12260 785 c0 -10 7 -15 18 -13 21 4 19 22 -2 26 -10 2 -16 -3 -16
-13z"/>
<path d="M12400 785 c0 -8 9 -15 20 -15 11 0 20 7 20 15 0 8 -9 15 -20 15 -11
0 -20 -7 -20 -15z"/>
<path d="M3474 723 c22 -91 99 -194 175 -233 52 -26 65 -26 51 0 -6 11 -20 20
-31 20 -21 0 -60 37 -87 82 -9 16 -24 28 -33 28 -21 0 -44 35 -59 88 -12 46
-26 59 -16 15z"/>
<path d="M4057 743 c-4 -3 -7 -18 -7 -32 0 -34 -36 -92 -61 -98 -11 -3 -29
-23 -39 -43 -24 -46 -64 -80 -88 -73 -10 2 -24 -3 -31 -11 -9 -10 -31 -16 -60
-17 l-46 -1 35 -9 c69 -17 149 12 212 78 34 35 87 136 101 191 5 21 -3 29 -16
15z"/>
<path d="M11812 720 c0 -14 2 -19 5 -12 2 6 2 18 0 25 -3 6 -5 1 -5 -13z"/>
<path d="M11850 720 c0 -13 7 -20 20 -20 13 0 20 7 20 20 0 13 -7 20 -20 20
-13 0 -20 -7 -20 -20z"/>
<path d="M11922 718 c2 -13 8 -23 13 -23 6 0 11 10 13 23 2 15 -2 22 -13 22
-11 0 -15 -7 -13 -22z"/>
<path d="M11982 718 c2 -13 10 -23 18 -23 8 0 16 10 18 23 3 17 -2 22 -18 22
-16 0 -21 -5 -18 -22z"/>
<path d="M12050 716 c0 -19 5 -24 20 -23 14 1 20 8 20 24 0 16 -6 23 -20 23
-15 0 -20 -7 -20 -24z"/>
<path d="M12260 721 c0 -22 15 -35 29 -27 13 9 1 46 -15 46 -8 0 -14 -9 -14
-19z"/>
<path d="M12320 714 c0 -20 4 -25 16 -20 9 3 20 6 25 6 5 0 9 9 9 20 0 15 -7
20 -25 20 -20 0 -25 -5 -25 -26z"/>
<path d="M12400 720 c0 -11 2 -20 4 -20 2 0 11 -3 20 -6 12 -5 16 0 16 20 0
19 -5 26 -20 26 -13 0 -20 -7 -20 -20z"/>
<path d="M12471 714 c0 -11 3 -14 6 -6 3 7 2 16 -1 19 -3 4 -6 -2 -5 -13z"/>
<path d="M3526 691 c-4 -6 -3 -19 3 -28 9 -17 10 -17 17 0 8 21 -10 45 -20 28z"/>
<path d="M3995 680 c-8 -13 4 -32 16 -25 12 8 12 35 0 35 -6 0 -13 -4 -16 -10z"/>
<path d="M12327 673 c-4 -3 -7 -31 -7 -62 0 -31 -3 -73 -7 -94 -5 -34 -8 -38
-29 -33 -20 5 -24 3 -24 -18 0 -16 7 -26 23 -30 l22 -7 -22 -11 c-24 -12 -32
-48 -10 -48 8 0 7 -4 -3 -10 -11 -7 -5 -10 23 -10 26 0 37 4 37 15 0 8 9 15
20 15 27 0 26 26 -1 33 -23 6 -17 27 7 27 21 0 17 38 -6 45 -11 3 -20 11 -20
16 0 5 9 9 20 9 13 0 20 7 20 20 0 13 -7 20 -20 20 -11 0 -20 5 -20 11 0 6 9
13 20 16 11 3 20 12 20 20 0 9 -6 13 -15 9 -10 -4 -15 1 -15 15 0 15 5 19 15
15 10 -4 15 1 15 15 0 12 -4 17 -11 13 -6 -3 -14 -1 -18 5 -4 6 -10 8 -14 4z"/>
<path d="M11857 664 c-13 -13 -7 -24 14 -24 11 0 19 5 17 12 -5 14 -22 21 -31
12z"/>
<path d="M11922 656 c1 -10 8 -17 13 -17 15 1 12 24 -3 29 -9 3 -13 -2 -10
-12z"/>
<path d="M11984 659 c-3 -6 -2 -15 2 -19 12 -12 38 5 30 19 -9 14 -23 14 -32
0z"/>
<path d="M12052 653 c4 -22 38 -26 38 -4 0 10 -8 17 -21 18 -14 1 -19 -3 -17
-14z"/>
<path d="M12260 656 c0 -14 24 -29 33 -19 3 3 3 11 0 19 -7 18 -33 18 -33 0z"/>
<path d="M12400 654 c0 -8 9 -14 21 -14 11 0 19 5 17 12 -6 17 -38 19 -38 2z"/>
<path d="M11295 650 c3 -5 8 -10 11 -10 2 0 4 5 4 10 0 6 -5 10 -11 10 -5 0
-7 -4 -4 -10z"/>
<path d="M11805 650 c-3 -5 -1 -10 4 -10 6 0 11 5 11 10 0 6 -2 10 -4 10 -3 0
-8 -4 -11 -10z"/>
<path d="M11855 600 c-9 -15 4 -30 20 -23 8 3 15 9 15 13 0 12 -29 20 -35 10z"/>
<path d="M11925 600 c-4 -6 -3 -16 3 -22 6 -6 12 -6 17 2 4 6 3 16 -3 22 -6 6
-12 6 -17 -2z"/>
<path d="M11985 600 c-9 -15 4 -30 20 -23 8 3 15 9 15 13 0 12 -29 20 -35 10z"/>
<path d="M12054 598 c-7 -11 2 -21 21 -24 8 -1 15 6 15 15 0 18 -27 24 -36 9z"/>
<path d="M12268 603 c-10 -3 -18 -8 -18 -13 0 -16 17 -19 35 -6 20 14 10 25
-17 19z"/>
<path d="M12400 594 c0 -8 5 -14 10 -14 6 0 13 0 18 0 15 0 6 23 -10 26 -10 1
-18 -4 -18 -12z"/>
<path d="M11290 591 c0 -17 18 -21 24 -6 3 9 0 15 -9 15 -8 0 -15 -4 -15 -9z"/>
<path d="M3630 565 c0 -9 5 -15 11 -13 6 2 11 8 11 13 0 5 -5 11 -11 13 -6 2
-11 -4 -11 -13z"/>
<path d="M3891 566 c-9 -10 -9 -16 -1 -21 17 -10 37 12 24 25 -8 8 -15 6 -23
-4z"/>
<path d="M11300 531 c0 -12 5 -21 10 -21 6 0 10 6 10 14 0 8 -4 18 -10 21 -5
3 -10 -3 -10 -14z"/>
<path d="M11854 539 c-10 -17 13 -36 27 -22 12 12 4 33 -11 33 -5 0 -12 -5
-16 -11z"/>
<path d="M11920 530 c0 -11 7 -20 15 -20 8 0 15 9 15 20 0 11 -7 20 -15 20 -8
0 -15 -9 -15 -20z"/>
<path d="M11980 530 c0 -15 5 -20 18 -18 9 2 17 10 17 18 0 8 -8 16 -17 18
-13 2 -18 -3 -18 -18z"/>
<path d="M12050 530 c0 -13 7 -20 20 -20 13 0 20 7 20 20 0 13 -7 20 -20 20
-13 0 -20 -7 -20 -20z"/>
<path d="M12267 543 c-13 -12 -7 -33 8 -33 8 0 15 9 15 20 0 20 -11 26 -23 13z"/>
<path d="M12400 530 c0 -13 7 -20 20 -20 13 0 20 7 20 20 0 13 -7 20 -20 20
-13 0 -20 -7 -20 -20z"/>
<path d="M3760 500 c0 -5 7 -10 15 -10 8 0 15 5 15 10 0 6 -7 10 -15 10 -8 0
-15 -4 -15 -10z"/>
<path d="M11300 465 c0 -16 6 -25 15 -25 8 0 15 9 15 19 0 10 -7 21 -15 25
-11 4 -15 -1 -15 -19z"/>
<path d="M11856 483 c-14 -15 -5 -43 14 -43 13 0 20 7 20 19 0 19 -23 35 -34
24z"/>
<path d="M11926 483 c-12 -12 -6 -43 9 -43 8 0 15 9 15 19 0 21 -13 34 -24 24z"/>
<path d="M12068 483 c-25 -6 -23 -43 2 -43 15 0 20 7 20 25 0 14 -1 24 -2 24
-2 -1 -11 -3 -20 -6z"/>
<path d="M12400 463 c0 -18 5 -24 18 -21 9 2 17 12 17 22 0 11 -8 20 -17 22
-13 2 -18 -5 -18 -23z"/>
<path d="M11805 470 c3 -5 8 -10 11 -10 2 0 4 5 4 10 0 6 -5 10 -11 10 -5 0
-7 -4 -4 -10z"/>
<path d="M11980 460 c0 -13 7 -20 20 -20 13 0 20 7 20 20 0 13 -7 20 -20 20
-13 0 -20 -7 -20 -20z"/>
<path d="M11300 394 c0 -9 7 -14 17 -12 25 5 28 28 4 28 -12 0 -21 -6 -21 -16z"/>
<path d="M11811 394 c0 -11 3 -14 6 -6 3 7 2 16 -1 19 -3 4 -6 -2 -5 -13z"/>
<path d="M11850 395 c0 -8 8 -15 18 -15 10 0 19 7 19 15 0 8 -9 15 -19 15 -10
0 -18 -7 -18 -15z"/>
<path d="M11920 395 c0 -8 7 -15 15 -15 8 0 15 7 15 15 0 8 -7 15 -15 15 -8 0
-15 -7 -15 -15z"/>
<path d="M11980 396 c0 -10 9 -16 21 -16 24 0 21 23 -4 28 -10 2 -17 -3 -17
-12z"/>
<path d="M12050 395 c0 -8 9 -15 20 -15 11 0 20 7 20 15 0 8 -9 15 -20 15 -11
0 -20 -7 -20 -15z"/>
<path d="M12400 395 c0 -8 4 -15 9 -15 5 0 14 7 21 15 10 13 9 15 -9 15 -12 0
-21 -6 -21 -15z"/>
</g>
</svg>
